<?xml version="1.0" encoding="utf-8"?>
<!-- Generator: Adobe Illustrator 27.5.0, SVG Export Plug-In . SVG Version: 6.00 Build 0)  -->
<svg version="1.1" xmlns="http://www.w3.org/2000/svg" xmlns:xlink="http://www.w3.org/1999/xlink" x="0px" y="0px"
	 viewBox="0 0 841.89 595.28" style="enable-background:new 0 0 841.89 595.28;" xml:space="preserve">
<style type="text/css">
	.st0{display:none;}
	.st1{display:inline;}
	.st2{fill:url(#SVGID_1_);}
	.st3{fill:url(#SVGID_00000161592790248679359830000018051714952351076767_);}
	.st4{fill:url(#SVGID_00000171714071507641513910000016661074406959582848_);}
	.st5{fill:url(#SVGID_00000057116239467167790910000014736944336367927183_);}
	.st6{fill:url(#SVGID_00000103251393168099729920000010920951502879846799_);}
	.st7{fill:url(#SVGID_00000062173123535588216550000003808792062359098813_);}
	.st8{fill:url(#SVGID_00000141414196067204487690000013796659049666230408_);}
	.st9{fill:url(#SVGID_00000088100045533091825790000007184664931648266145_);}
	.st10{fill:none;}
	.st11{fill:url(#SVGID_00000080167885945113866610000014794354797722199224_);}
	.st12{fill:url(#SVGID_00000098197537042992867880000003814729761172449155_);}
	.st13{fill:url(#SVGID_00000165950160182574148160000014300472277896760960_);}
	.st14{fill:url(#SVGID_00000103982984417623174680000016079208547042921371_);stroke:#000000;}
	.st15{fill:url(#SVGID_00000143603732788561661250000017436050319492418751_);stroke:#000000;}
	.st16{fill:url(#SVGID_00000170991236071043911520000014312667367037625742_);stroke:#000000;}
	.st17{fill:url(#SVGID_00000028286676458022648560000009601486920990205837_);stroke:#000000;}
	.st18{fill:url(#SVGID_00000062171169759662796670000015758861084714243234_);stroke:#000000;}
	.st19{fill:url(#SVGID_00000101819473224484104540000015226821169646997387_);stroke:#000000;}
	.st20{fill:url(#SVGID_00000142858794507795357120000012450183165423594158_);stroke:#000000;}
	.st21{fill:url(#SVGID_00000032608430927873916030000011966743429612575154_);stroke:#000000;}
	.st22{fill:url(#SVGID_00000062177618661038403960000017503179907199297471_);stroke:#000000;}
	.st23{fill:url(#SVGID_00000067950420329350739740000008722184664718490292_);stroke:#000000;}
	.st24{fill:url(#SVGID_00000030462557347498987130000004600808172432840328_);stroke:#000000;}
	.st25{fill:url(#SVGID_00000049935153062890193300000010262645848460648872_);stroke:#000000;}
	.st26{fill:url(#SVGID_00000023250495211849563410000000937468941757284254_);stroke:#000000;}
	.st27{fill:url(#SVGID_00000102512963851169862610000000476105820115934346_);stroke:#000000;}
	.st28{fill:url(#SVGID_00000039843619716306998330000015345394379059546032_);stroke:#000000;}
	.st29{fill:url(#SVGID_00000119833719904874705390000010673989841293877429_);stroke:#000000;}
	.st30{fill:url(#SVGID_00000031894347803151898610000013299114345396121244_);stroke:#000000;}
	.st31{fill:url(#SVGID_00000007399036136259670100000003434846266507346598_);stroke:#000000;}
	.st32{fill:url(#SVGID_00000070804373999226155030000018088055569291835788_);stroke:#000000;}
	.st33{fill:url(#SVGID_00000067923944760316622040000016777088773527730847_);stroke:#000000;}
	.st34{fill:url(#SVGID_00000134216910551579486110000010286928989375426203_);stroke:#000000;}
	.st35{fill:url(#SVGID_00000033336344946395085870000014809524018953862544_);stroke:#000000;}
	.st36{fill:url(#SVGID_00000128469392016628613430000015171246902873268391_);stroke:#000000;}
	.st37{fill:url(#SVGID_00000089540282214359342070000002455217598270234795_);stroke:#000000;}
	.st38{fill:url(#SVGID_00000070112915045195936160000002141324647018047874_);stroke:#000000;}
	.st39{fill:url(#SVGID_00000061470859560483399100000004418634797575999118_);stroke:#000000;}
	.st40{fill:url(#SVGID_00000170271277404164984960000016478619711096247708_);stroke:#000000;}
	.st41{fill:url(#SVGID_00000035492331068149691590000017517360350652315278_);stroke:#000000;}
	.st42{fill:url(#SVGID_00000057860350545454419040000005932564595564971188_);stroke:#000000;}
	.st43{fill:url(#SVGID_00000087372524413905379230000011849660083590972607_);stroke:#000000;}
	.st44{fill:url(#SVGID_00000165913609657311970320000010655383181609388735_);stroke:#000000;}
	.st45{fill:url(#SVGID_00000014608323867620354850000014124470843539638680_);stroke:#000000;}
	.st46{fill:url(#SVGID_00000176013496097655714990000011847323911045057690_);stroke:#000000;}
	.st47{fill:url(#SVGID_00000081616233972848051850000012612031010944828336_);stroke:#000000;}
	.st48{fill:url(#SVGID_00000070803467854965882770000015042368531849514392_);stroke:#000000;}
	.st49{fill:url(#SVGID_00000149359365802061898740000014353761063721424020_);stroke:#000000;}
	.st50{fill:url(#SVGID_00000080923246674431869440000008212178841597613501_);stroke:#000000;}
	.st51{fill:url(#SVGID_00000152949974048084752070000010436218230821293240_);stroke:#000000;}
	.st52{fill:url(#SVGID_00000118361281551936663160000000458818651308095906_);stroke:#000000;}
	.st53{fill:url(#SVGID_00000167368930620971295330000006196395471928684444_);stroke:#000000;}
	.st54{fill:url(#SVGID_00000075125416420573880840000011367729360756760741_);stroke:#000000;}
	.st55{fill:url(#SVGID_00000104691712298946629000000016375220708003232157_);stroke:#000000;}
	.st56{fill:url(#SVGID_00000075153691721678226260000017708974547570818223_);stroke:#000000;}
	.st57{fill:url(#SVGID_00000179620743397401468200000016207730082539109800_);stroke:#000000;}
	.st58{fill:url(#SVGID_00000006670932123618956490000002116214306058777253_);stroke:#000000;}
	.st59{fill:url(#SVGID_00000132790756284994469520000007544262942830907579_);stroke:#000000;}
	.st60{fill:url(#SVGID_00000025436808758158656780000012367257273301710519_);stroke:#000000;}
	.st61{fill:url(#SVGID_00000011005339035639567840000014290759787974157707_);stroke:#000000;}
	.st62{fill:url(#SVGID_00000012442458908743026300000004719371795138299015_);stroke:#000000;}
	.st63{fill:url(#SVGID_00000005224972663935742770000011953939878969166484_);stroke:#000000;}
	.st64{fill:url(#SVGID_00000131365171406144359980000011350002097221680269_);stroke:#000000;}
	.st65{fill:url(#SVGID_00000021090047102183246070000003639115201141321376_);stroke:#000000;}
	.st66{fill:url(#SVGID_00000073721272970319078860000013193170291227131318_);stroke:#000000;}
	.st67{fill:url(#SVGID_00000060032865996192353310000009541599994797508234_);stroke:#000000;}
	.st68{fill:url(#SVGID_00000039816466051670220900000006627723222428882048_);stroke:#000000;}
	.st69{fill:url(#SVGID_00000169528831375891399150000007093152537578916483_);stroke:#000000;}
	.st70{fill:url(#SVGID_00000022538877226802539200000005596755703287635382_);stroke:#000000;}
	.st71{fill:url(#SVGID_00000083777495366622311790000003563052380355982731_);stroke:#000000;}
	.st72{fill:url(#SVGID_00000031888163714670839780000001643688395536365992_);stroke:#000000;}
	.st73{fill:url(#SVGID_00000070080607350414325160000000560292829818047150_);stroke:#000000;}
	.st74{fill:#FFFFFF;stroke:#000000;}
	.st75{fill:url(#SVGID_00000137126589382059887670000005253893481089026719_);stroke:#000000;}
	.st76{fill:url(#SVGID_00000096750248067387640040000005361477808938426299_);stroke:#000000;}
	.st77{fill:url(#SVGID_00000088106835418625351120000009553676864275945131_);stroke:#000000;}
	.st78{fill:url(#SVGID_00000013882311697563121030000006500908113974512816_);stroke:#000000;}
	.st79{fill:url(#SVGID_00000001650979151017002010000008872152159598257078_);stroke:#000000;}
	.st80{fill:url(#SVGID_00000099659781411060691740000009127600002213596595_);stroke:#000000;}
	.st81{fill:url(#SVGID_00000052793034806038442580000011729056226895237013_);stroke:#000000;}
	.st82{fill:url(#SVGID_00000165201064916761041800000011122908190007379385_);stroke:#000000;}
	.st83{fill:url(#SVGID_00000067920095962609207010000001622921319526424471_);stroke:#000000;}
	.st84{fill:url(#SVGID_00000111183092180733020640000011988825970535498117_);stroke:#000000;}
	.st85{fill:url(#SVGID_00000060714502668637681580000012009914861139435410_);stroke:#000000;}
	.st86{fill:url(#SVGID_00000132788905492745163370000009507740166259248016_);stroke:#000000;}
	.st87{fill:url(#SVGID_00000168825912426420138490000016470249509567182523_);stroke:#000000;}
	.st88{fill:url(#SVGID_00000029730020018096945670000015247494878533136044_);stroke:#000000;}
	.st89{fill:url(#SVGID_00000049222598276532295300000012470157722769131443_);stroke:#000000;}
	.st90{fill:url(#SVGID_00000006680322812976809090000011284541505040438150_);stroke:#000000;}
	.st91{fill:url(#SVGID_00000166637606692432301770000000215954800275755162_);stroke:#000000;}
	.st92{fill:url(#SVGID_00000129176395369381773780000000139865476434000806_);stroke:#000000;}
	.st93{fill:url(#SVGID_00000081644483236274300800000003121765104883088295_);stroke:#000000;}
	.st94{fill:url(#SVGID_00000050659566290839169110000017571790618909888153_);stroke:#000000;}
	.st95{fill:url(#SVGID_00000125603322229824072990000006954285725265056663_);stroke:#000000;}
	.st96{fill:url(#SVGID_00000074409144164440271460000011392935406564670852_);stroke:#000000;}
	.st97{fill:url(#SVGID_00000069391059353287377570000003144605429499475076_);stroke:#000000;}
	.st98{fill:url(#SVGID_00000029041176701389722210000003821065759790803845_);stroke:#000000;}
	.st99{fill:url(#SVGID_00000116201779887476887610000000562731838891509896_);stroke:#000000;}
	.st100{fill:url(#SVGID_00000058581812489192931310000015612396350742223523_);stroke:#000000;}
	.st101{fill:url(#SVGID_00000041974321749616051710000000088007793347252132_);stroke:#000000;}
	.st102{fill:url(#SVGID_00000067921542397567659750000000007305312454470021_);stroke:#000000;}
	.st103{fill:url(#SVGID_00000019664698854592151100000000115554621609123494_);stroke:#000000;}
	.st104{fill:url(#SVGID_00000061446726127240978530000014099361217190163592_);stroke:#000000;}
	.st105{fill:url(#SVGID_00000031203997580067585400000014181020374783621804_);stroke:#000000;}
	.st106{fill:url(#SVGID_00000148632967947962918240000012430039274274538653_);stroke:#000000;}
	.st107{fill:url(#SVGID_00000010284197956015625860000006256813587165755309_);stroke:#000000;}
	.st108{fill:url(#SVGID_00000118383355382515778010000003454114699536288139_);stroke:#000000;}
	.st109{fill:url(#SVGID_00000040558088737632821170000012941091999185811604_);stroke:#000000;}
	.st110{fill:url(#SVGID_00000153691004364099777770000017218891178644401053_);stroke:#000000;}
	.st111{fill:url(#SVGID_00000109720410093735202550000014243084819419591818_);stroke:#000000;}
	.st112{fill:url(#SVGID_00000179605663150375529350000010933100412858208402_);stroke:#000000;}
	.st113{fill:#FFFFFF;}
	.st114{stroke:#FFFFFF;stroke-miterlimit:10;}
	.st115{stroke:#FFFFFF;}
	.st116{fill:#FFFFFF;stroke:#000000;stroke-miterlimit:10;}
</style>
<g id="Laag_2" class="st0">
	<g class="st1">
		<linearGradient id="SVGID_1_" gradientUnits="userSpaceOnUse" x1="574.9083" y1="372.7845" x2="575.8256" y2="149.9055">
			<stop  offset="0" style="stop-color:#FFFFFF"/>
			<stop  offset="1" style="stop-color:#000000"/>
		</linearGradient>
		<polygon class="st2" points="576.46,280.95 576.46,267.39 574.14,273.69 		"/>
		
			<linearGradient id="SVGID_00000054960379286647519980000007798516581887818939_" gradientUnits="userSpaceOnUse" x1="559.0424" y1="372.7191" x2="559.9595" y2="149.8402">
			<stop  offset="0" style="stop-color:#FFFFFF"/>
			<stop  offset="1" style="stop-color:#000000"/>
		</linearGradient>
		<polygon style="fill:url(#SVGID_00000054960379286647519980000007798516581887818939_);" points="558.31,279.65 558.31,286.83 
			560.51,286.83 		"/>
		
			<linearGradient id="SVGID_00000064340150753293589450000015652621580973295292_" gradientUnits="userSpaceOnUse" x1="599.8325" y1="372.887" x2="600.7496" y2="150.008">
			<stop  offset="0" style="stop-color:#FFFFFF"/>
			<stop  offset="1" style="stop-color:#000000"/>
		</linearGradient>
		<polygon style="fill:url(#SVGID_00000064340150753293589450000015652621580973295292_);" points="601.57,211.28 599.43,211.28 
			599.43,217.71 		"/>
		
			<linearGradient id="SVGID_00000035512466243243237590000015135366592186666912_" gradientUnits="userSpaceOnUse" x1="119.8584" y1="370.9118" x2="120.7756" y2="148.0328">
			<stop  offset="0" style="stop-color:#FFFFFF"/>
			<stop  offset="1" style="stop-color:#000000"/>
		</linearGradient>
		<path style="fill:url(#SVGID_00000035512466243243237590000015135366592186666912_);" d="M120.05,211.28
			c0.29,0.73,0.6,1.44,0.92,2.12v-2.12H120.05z"/>
		
			<linearGradient id="SVGID_00000168811935880628498940000009734849154012258739_" gradientUnits="userSpaceOnUse" x1="559.6928" y1="372.7203" x2="560.61" y2="149.8413">
			<stop  offset="0" style="stop-color:#FFFFFF"/>
			<stop  offset="1" style="stop-color:#000000"/>
		</linearGradient>
		<polygon style="fill:url(#SVGID_00000168811935880628498940000009734849154012258739_);" points="558.31,272.94 561.99,261.87 
			558.31,261.87 		"/>
		
			<linearGradient id="SVGID_00000109016683170814825940000010078726622299892124_" gradientUnits="userSpaceOnUse" x1="362.7709" y1="371.9115" x2="363.6881" y2="149.0325">
			<stop  offset="0" style="stop-color:#FFFFFF"/>
			<stop  offset="1" style="stop-color:#000000"/>
		</linearGradient>
		<polygon style="fill:url(#SVGID_00000109016683170814825940000010078726622299892124_);" points="363.51,279.09 362.82,273.51 
			362.82,279.09 		"/>
		
			<linearGradient id="SVGID_00000103979186169512771080000008238089025732503427_" gradientUnits="userSpaceOnUse" x1="384.1898" y1="371.9996" x2="385.1069" y2="149.1206">
			<stop  offset="0" style="stop-color:#FFFFFF"/>
			<stop  offset="1" style="stop-color:#000000"/>
		</linearGradient>
		<polygon style="fill:url(#SVGID_00000103979186169512771080000008238089025732503427_);" points="384.92,318.83 384.92,311.1 
			383.93,311.1 		"/>
		
			<linearGradient id="SVGID_00000136392882693786098960000003894574316574066059_" gradientUnits="userSpaceOnUse" x1="340.4651" y1="371.8197" x2="341.3823" y2="148.9407">
			<stop  offset="0" style="stop-color:#FFFFFF"/>
			<stop  offset="1" style="stop-color:#000000"/>
		</linearGradient>
		<polygon style="fill:url(#SVGID_00000136392882693786098960000003894574316574066059_);" points="341.94,161.37 340.72,161.37 
			340.72,170.85 		"/>
		<path class="st10" d="M455.19,411.63c-0.8-0.41-1.71-0.75-2.73-0.99c-1.02-0.25-2.43-0.37-4.23-0.37h-7.08v45.58h8.04
			c2.24,0,4.2-0.56,5.88-1.68c1.68-1.12,3.08-2.69,4.2-4.72c1.12-2.03,1.96-4.45,2.52-7.27c0.56-2.81,0.84-5.96,0.84-9.44
			c0-5.3-0.58-9.77-1.74-13.41C459.73,415.69,457.83,413.12,455.19,411.63z"/>
		<path class="st10" d="M379.67,424.74c-1.54-4.93-3.59-8.74-6.15-11.43c-2.56-2.69-5.76-4.04-9.6-4.04c-3.88,0-7.12,1.51-9.72,4.53
			c-2.6,3.02-4.7,7.06-6.3,12.11c-1.6,5.05-2.73,10.95-3.39,17.7c-0.66,6.75-0.99,13.89-0.99,21.43c0,8.78,0.32,16.66,0.96,23.66
			c0.64,7,1.72,12.98,3.24,17.95c1.52,4.97,3.56,8.76,6.12,11.36c2.56,2.61,5.78,3.91,9.66,3.91c3.88,0,7.12-1.49,9.72-4.47
			c2.6-2.98,4.7-7.04,6.3-12.17c1.6-5.13,2.73-11.12,3.39-17.95c0.66-6.83,0.99-14.1,0.99-21.8c0-8.45-0.32-16.13-0.96-23.04
			C382.3,435.59,381.21,429.67,379.67,424.74z"/>
		<path class="st10" d="M134.04,411.63c-0.8-0.41-1.71-0.75-2.73-0.99c-1.02-0.25-2.43-0.37-4.23-0.37h-7.08v45.58h8.04
			c2.24,0,4.2-0.56,5.88-1.68c1.68-1.12,3.08-2.69,4.2-4.72c1.12-2.03,1.96-4.45,2.52-7.27c0.56-2.81,0.84-5.96,0.84-9.44
			c0-5.3-0.58-9.77-1.74-13.41C138.58,415.69,136.68,413.12,134.04,411.63z"/>
		
			<linearGradient id="SVGID_00000028303403066364535330000008277656997498298011_" gradientUnits="userSpaceOnUse" x1="318.9444" y1="371.7311" x2="319.8615" y2="148.8521">
			<stop  offset="0" style="stop-color:#FFFFFF"/>
			<stop  offset="1" style="stop-color:#000000"/>
		</linearGradient>
		<polygon style="fill:url(#SVGID_00000028303403066364535330000008277656997498298011_);" points="318.62,336.06 318.62,343.34 
			319.56,336.06 		"/>
		
			<linearGradient id="SVGID_00000127741031463715693020000014546479867227924651_" gradientUnits="userSpaceOnUse" x1="351.8397" y1="371.8665" x2="352.7569" y2="148.9875">
			<stop  offset="0" style="stop-color:#FFFFFF"/>
			<stop  offset="1" style="stop-color:#000000"/>
		</linearGradient>
		<polygon style="fill:url(#SVGID_00000127741031463715693020000014546479867227924651_);" points="352.53,189.59 352.47,189.59 
			349.81,211.28 355.19,211.28 		"/>
		<path class="st10" d="M509.39,426.17c-1.9-4.8-4.34-8.55-7.32-11.24c-2.98-2.69-6.89-4.04-11.73-4.04h-7.98v109.3h8.22
			c4.32,0,7.96-1.16,10.92-3.48c2.96-2.32,5.43-5.82,7.41-10.5s3.46-10.49,4.44-17.45s1.47-15.07,1.47-24.34
			c0-7.62-0.43-14.7-1.29-21.24C512.66,436.64,511.29,430.97,509.39,426.17z"/>
		
			<linearGradient id="SVGID_00000080911628545510881040000000555679851408401072_" gradientUnits="userSpaceOnUse" x1="454.2714" y1="372.288" x2="455.1886" y2="149.409">
			<stop  offset="0" style="stop-color:#FFFFFF"/>
			<stop  offset="1" style="stop-color:#000000"/>
		</linearGradient>
		<path style="fill:url(#SVGID_00000080911628545510881040000000555679851408401072_);" d="M454.55,282.6h0.19v-0.49
			C454.67,282.27,454.61,282.44,454.55,282.6z"/>
		
			<linearGradient id="SVGID_00000039128146138491924340000012541882409010100382_" gradientUnits="userSpaceOnUse" x1="131.2069" y1="370.9585" x2="132.1241" y2="148.0795">
			<stop  offset="0" style="stop-color:#FFFFFF"/>
			<stop  offset="1" style="stop-color:#000000"/>
		</linearGradient>
		<path style="fill:url(#SVGID_00000039128146138491924340000012541882409010100382_);stroke:#000000;" d="M122.65,171.15
			c1.28-1.2,2.78-1.8,4.5-1.8c2.2,0,4.22,0.77,6.06,2.31c1.84,1.54,3.46,3.26,4.86,5.14c1.4,1.88,2.58,3.63,3.54,5.23
			c0.59,0.99,1.07,1.64,1.47,2.01v-21.64c0-0.57-0.41-1.03-0.92-1.03h-20.27c-0.51,0-0.92,0.46-0.92,1.03v8.12
			c0,0.89,0.93,1.35,1.52,0.77C122.54,171.25,122.6,171.2,122.65,171.15z"/>
		
			<linearGradient id="SVGID_00000141449741080797798730000012416908807553685412_" gradientUnits="userSpaceOnUse" x1="146.1708" y1="371.0201" x2="147.088" y2="148.1411">
			<stop  offset="0" style="stop-color:#FFFFFF"/>
			<stop  offset="1" style="stop-color:#000000"/>
		</linearGradient>
		<path style="fill:url(#SVGID_00000141449741080797798730000012416908807553685412_);stroke:#000000;" d="M148.8,270.22
			c-0.43-2.92-0.91-5.66-1.46-8.24c-0.1-0.47-0.47-0.79-0.89-0.79h-2.46c-0.51,0-0.92,0.46-0.92,1.03v22.89
			c0,0.57,0.41,1.03,0.92,1.03h5.17c0.52,0,0.94-0.5,0.92-1.09C149.86,279.59,149.44,274.63,148.8,270.22z"/>
		
			<linearGradient id="SVGID_00000183969593608535658470000004125159215366628511_" gradientUnits="userSpaceOnUse" x1="131.8573" y1="370.9612" x2="132.7745" y2="148.0822">
			<stop  offset="0" style="stop-color:#FFFFFF"/>
			<stop  offset="1" style="stop-color:#000000"/>
		</linearGradient>
		<path style="fill:url(#SVGID_00000183969593608535658470000004125159215366628511_);stroke:#000000;" d="M143.07,335.02v-22.89
			c0-0.57-0.41-1.03-0.92-1.03h-8.38c-0.44,0-0.81,0.36-0.9,0.85c-0.55,3.17-1.32,5.86-2.29,8.07c-1.06,2.4-2.35,4.26-3.87,5.57
			c-1.52,1.31-3.24,1.97-5.16,1.97c-0.2,0-0.39-0.04-0.6-0.05v7.52c0,0.57,0.41,1.03,0.92,1.03h20.27
			C142.66,336.06,143.07,335.6,143.07,335.02z"/>
		
			<linearGradient id="SVGID_00000093139498815270552230000016388853179165762999_" gradientUnits="userSpaceOnUse" x1="110.0993" y1="370.8716" x2="111.0165" y2="147.9927">
			<stop  offset="0" style="stop-color:#FFFFFF"/>
			<stop  offset="1" style="stop-color:#000000"/>
		</linearGradient>
		<path style="fill:url(#SVGID_00000093139498815270552230000016388853179165762999_);stroke:#000000;" d="M120.97,328.47
			c0-0.54-0.37-0.98-0.85-1.03c-2.33-0.26-4.42-1.15-6.26-2.71c-2.22-1.88-4.13-3.97-5.73-6.26c-1.6-2.28-2.91-4.37-3.93-6.26
			c-1.02-1.88-1.81-2.83-2.37-2.83c-0.4,0-0.75,0.32-1.05,0.94c-0.3,0.63-0.54,1.69-0.72,3.17c-0.18,1.49-0.31,3.43-0.39,5.83
			c-0.08,2.4-0.12,5.37-0.12,8.91c0,2.59,0.03,4.84,0.08,6.82c0.02,0.56,0.42,1,0.92,1h19.5c0.51,0,0.92-0.46,0.92-1.03V328.47z"/>
		
			<linearGradient id="SVGID_00000047771586231382774790000002887187895980695715_" gradientUnits="userSpaceOnUse" x1="121.2605" y1="370.9176" x2="122.1777" y2="148.0386">
			<stop  offset="0" style="stop-color:#FFFFFF"/>
			<stop  offset="1" style="stop-color:#000000"/>
		</linearGradient>
		<path style="fill:url(#SVGID_00000047771586231382774790000002887187895980695715_);stroke:#000000;" d="M121.89,336.06
			c-0.51,0-0.92,0.46-0.92,1.03v22.3v-22.3c0-0.57-0.41-1.03-0.92-1.03h-19.43c-0.52,0-0.94,0.5-0.92,1.09
			c0.05,1.19,0.1,2.27,0.18,3.18c0.22,2.8,0.59,4.94,1.11,6.43c0.52,1.49,1.37,3.2,2.55,5.14c1.18,1.95,2.65,3.8,4.41,5.57
			c1.76,1.77,3.79,3.28,6.09,4.54c2.3,1.26,4.79,1.88,7.47,1.88c3.96,0,7.68-1.49,11.16-4.46c3.48-2.97,6.52-7.4,9.12-13.28
			c0.43-0.97,0.82-2.02,1.22-3.08c0.05-0.13,0.07-0.27,0.07-0.41v-5.58c0-0.57-0.41-1.03-0.92-1.03H121.89z"/>
		
			<linearGradient id="SVGID_00000082367088096599658440000005953777623877306502_" gradientUnits="userSpaceOnUse" x1="146.021" y1="371.0195" x2="146.9381" y2="148.1405">
			<stop  offset="0" style="stop-color:#FFFFFF"/>
			<stop  offset="1" style="stop-color:#000000"/>
		</linearGradient>
		<path style="fill:url(#SVGID_00000082367088096599658440000005953777623877306502_);stroke:#000000;" d="M148.54,311.1h-4.55
			c-0.51,0-0.92,0.46-0.92,1.03v22.89c0,0.57,0.41,1.03,0.92,1.03h0.61c0.4,0,0.76-0.29,0.88-0.72c0.94-3.43,1.78-7.13,2.49-11.2
			c0.64-3.7,1.13-7.68,1.49-11.89C149.51,311.64,149.08,311.1,148.54,311.1z"/>
		
			<linearGradient id="SVGID_00000104684342884649567920000017306452937246654859_" gradientUnits="userSpaceOnUse" x1="143.8582" y1="371.0106" x2="144.7754" y2="148.1316">
			<stop  offset="0" style="stop-color:#FFFFFF"/>
			<stop  offset="1" style="stop-color:#000000"/>
		</linearGradient>
		<path style="fill:url(#SVGID_00000104684342884649567920000017306452937246654859_);stroke:#000000;" d="M144.86,337.49
			c0.01-0.02,0.01-0.05,0.02-0.07c0.2-0.67-0.25-1.36-0.87-1.36h-0.02c-0.51,0-0.92,0.46-0.92,1.03v0.07
			C143.07,338.34,144.53,338.61,144.86,337.49z"/>
		
			<linearGradient id="SVGID_00000107586282718907605680000013322228789774822023_" gradientUnits="userSpaceOnUse" x1="146.323" y1="371.0207" x2="147.2402" y2="148.1417">
			<stop  offset="0" style="stop-color:#FFFFFF"/>
			<stop  offset="1" style="stop-color:#000000"/>
		</linearGradient>
		<path style="fill:url(#SVGID_00000107586282718907605680000013322228789774822023_);stroke:#000000;" d="M149.23,286.15h-5.24
			c-0.51,0-0.92,0.46-0.92,1.03v22.89c0,0.57,0.41,1.03,0.92,1.03h4.72c0.48,0,0.87-0.41,0.92-0.94c0.4-5.21,0.62-10.76,0.62-16.71
			c0-2.18-0.04-4.27-0.1-6.3C150.13,286.59,149.72,286.15,149.23,286.15z"/>
		
			<linearGradient id="SVGID_00000066505612728063724670000009369305032967177888_" gradientUnits="userSpaceOnUse" x1="127.9446" y1="370.9451" x2="128.8618" y2="148.0661">
			<stop  offset="0" style="stop-color:#FFFFFF"/>
			<stop  offset="1" style="stop-color:#000000"/>
		</linearGradient>
		<path style="fill:url(#SVGID_00000066505612728063724670000009369305032967177888_);stroke:#000000;" d="M133.56,231.23
			c-2.08-2.74-4.12-5.34-6.12-7.8c-2-2.45-3.79-5.08-5.37-7.88c-0.39-0.69-0.76-1.4-1.11-2.14v21.8c0,0.57,0.41,1.03,0.92,1.03
			h13.32c0.76,0,1.19-0.98,0.73-1.67C135.15,233.4,134.36,232.28,133.56,231.23z"/>
		
			<linearGradient id="SVGID_00000057864667781151121620000011391195756149672618_" gradientUnits="userSpaceOnUse" x1="131.5175" y1="370.9598" x2="132.4348" y2="148.0808">
			<stop  offset="0" style="stop-color:#FFFFFF"/>
			<stop  offset="1" style="stop-color:#000000"/>
		</linearGradient>
		<path style="fill:url(#SVGID_00000057864667781151121620000011391195756149672618_);stroke:#000000;" d="M139.68,240.57
			c-0.79-1.37-1.58-2.65-2.38-3.9c-0.17-0.27-0.45-0.43-0.74-0.43h-14.67c-0.51,0-0.92,0.46-0.92,1.03v22.89
			c0,0.57,0.41,1.03,0.92,1.03h20.27c0.51,0,0.92-0.46,0.92-1.03v-12.22c0-0.15-0.03-0.3-0.09-0.44
			C141.96,244.96,140.86,242.63,139.68,240.57z"/>
		
			<linearGradient id="SVGID_00000110469792427158812670000017176223779577670300_" gradientUnits="userSpaceOnUse" x1="144.5182" y1="371.0133" x2="145.4354" y2="148.1343">
			<stop  offset="0" style="stop-color:#FFFFFF"/>
			<stop  offset="1" style="stop-color:#000000"/>
		</linearGradient>
		<path style="fill:url(#SVGID_00000110469792427158812670000017176223779577670300_);stroke:#000000;" d="M145.02,253.08
			c-0.06-0.18-0.12-0.36-0.17-0.54c-0.36-1.08-1.78-0.78-1.78,0.37v7.24c0,0.57,0.41,1.03,0.92,1.03h2c0.6,0,1.04-0.64,0.89-1.3
			C146.32,257.46,145.7,255.19,145.02,253.08z"/>
		
			<linearGradient id="SVGID_00000093868101007019237190000010077223077165794951_" gradientUnits="userSpaceOnUse" x1="143.5562" y1="371.0093" x2="144.4734" y2="148.1304">
			<stop  offset="0" style="stop-color:#FFFFFF"/>
			<stop  offset="1" style="stop-color:#000000"/>
		</linearGradient>
		<path style="fill:url(#SVGID_00000093868101007019237190000010077223077165794951_);stroke:#000000;" d="M143.07,184.05
			c0.24,0.23,0.46,0.39,0.63,0.39c0.44,0,0.79-0.34,1.05-1.03c0.26-0.69,0.46-1.77,0.6-3.26c0.14-1.48,0.24-3.37,0.3-5.66
			c0.06-2.28,0.09-5.08,0.09-8.4c0-1.34,0-2.56-0.01-3.7c0-0.57-0.41-1.02-0.92-1.02h-0.82c-0.51,0-0.92,0.46-0.92,1.03V184.05z"/>
		
			<linearGradient id="SVGID_00000086674280316198325890000015405114087181118102_" gradientUnits="userSpaceOnUse" x1="131.1044" y1="370.9581" x2="132.0216" y2="148.0791">
			<stop  offset="0" style="stop-color:#FFFFFF"/>
			<stop  offset="1" style="stop-color:#000000"/>
		</linearGradient>
		<path style="fill:url(#SVGID_00000086674280316198325890000015405114087181118102_);stroke:#000000;" d="M143.07,160.34v-14.87
			c0-0.21-0.06-0.42-0.16-0.6c-0.31-0.5-0.66-1.02-1.06-1.58c-1.24-1.71-2.66-3.26-4.26-4.63c-1.6-1.37-3.32-2.46-5.16-3.26
			c-1.84-0.8-3.68-1.2-5.52-1.2c-1.83,0-3.61,0.39-5.34,1.1c-0.36,0.15-0.6,0.54-0.6,0.97v24.06c0,0.57,0.41,1.03,0.92,1.03h20.27
			C142.66,161.37,143.07,160.91,143.07,160.34z"/>
		
			<linearGradient id="SVGID_00000062875359431708819880000005557024368857660600_" gradientUnits="userSpaceOnUse" x1="110.3384" y1="370.8727" x2="111.2556" y2="147.9937">
			<stop  offset="0" style="stop-color:#FFFFFF"/>
			<stop  offset="1" style="stop-color:#000000"/>
		</linearGradient>
		<path style="fill:url(#SVGID_00000062875359431708819880000005557024368857660600_);stroke:#000000;" d="M120.97,237.27
			c0-0.57-0.41-1.03-0.92-1.03h-14.79h14.79c0.51,0,0.92-0.46,0.92-1.03v-21.55c0-0.16-0.04-0.32-0.1-0.47
			c-0.2-0.43-0.39-0.86-0.57-1.31c-0.15-0.36-0.47-0.6-0.83-0.6h-17.05h16.24c0.65,0,1.09-0.73,0.85-1.41
			c-0.45-1.25-0.86-2.56-1.21-3.93c-0.94-3.6-1.41-7.86-1.41-12.77c0-1.97,0.1-3.87,0.26-5.71c0.05-0.61-0.37-1.14-0.91-1.14h-13.82
			h14.01c0.47,0,0.86-0.4,0.91-0.92c0.05-0.56,0.1-1.12,0.18-1.66c0.42-2.97,1.06-5.51,1.92-7.63c0.41-1,0.86-1.89,1.36-2.68
			c0.11-0.17,0.17-0.38,0.17-0.59v-10.44c0-0.57-0.41-1.03-0.92-1.03h-14.79h14.79c0.51,0,0.92-0.46,0.92-1.03v-23.18
			c0-0.76-0.71-1.27-1.31-0.94c-0.97,0.53-1.92,1.16-2.86,1.94c-3.18,2.63-5.94,6.6-8.28,11.91c-2.34,5.31-4.2,12-5.58,20.06
			c-1.38,8.06-2.07,17.4-2.07,28.03c0,9.26,0.48,17.2,1.44,23.83c0.96,6.63,2.21,12.37,3.75,17.23c1.54,4.86,3.29,9.03,5.25,12.51
			c1.91,3.39,3.87,6.43,5.89,9.12c0.25,0.13,0.46,0.24,0.7,0.36h2.15c0.51,0,0.92-0.46,0.92-1.03V237.27z"/>
		
			<linearGradient id="SVGID_00000062165105195426491170000007232180861387719556_" gradientUnits="userSpaceOnUse" x1="119.3197" y1="370.9096" x2="120.2369" y2="148.0306">
			<stop  offset="0" style="stop-color:#FFFFFF"/>
			<stop  offset="1" style="stop-color:#000000"/>
		</linearGradient>
		<path style="fill:url(#SVGID_00000062165105195426491170000007232180861387719556_);stroke:#000000;" d="M118.79,262.91
			c0.19,0.25,0.39,0.5,0.58,0.75c0.56,0.72,1.61,0.27,1.61-0.68v-0.75c0-0.57-0.41-1.03-0.92-1.03h-0.58
			C118.69,261.19,118.27,262.24,118.79,262.91z"/>
		
			<linearGradient id="SVGID_00000041284665389750468920000001132558624815694732_" gradientUnits="userSpaceOnUse" x1="143.4898" y1="371.0091" x2="144.407" y2="148.1301">
			<stop  offset="0" style="stop-color:#FFFFFF"/>
			<stop  offset="1" style="stop-color:#000000"/>
		</linearGradient>
		<path style="fill:url(#SVGID_00000041284665389750468920000001132558624815694732_);stroke:#000000;" d="M144.79,161.37
			c0.51,0,0.92-0.48,0.92-1.05c-0.01-0.6-0.02-1.16-0.03-1.68c-0.04-2-0.11-3.66-0.21-4.97c-0.1-1.31-0.22-2.37-0.36-3.17
			c-0.14-0.8-0.41-1.77-0.81-2.91c-0.25-0.7-0.67-1.52-1.23-2.44v15.2c0,0.57,0.41,1.03,0.92,1.03H144.79z"/>
		
			<linearGradient id="SVGID_00000124854923839785236300000013294251446052828034_" gradientUnits="userSpaceOnUse" x1="137.4195" y1="370.9841" x2="138.3367" y2="148.1051">
			<stop  offset="0" style="stop-color:#FFFFFF"/>
			<stop  offset="1" style="stop-color:#000000"/>
		</linearGradient>
		<path style="fill:url(#SVGID_00000124854923839785236300000013294251446052828034_);stroke:#000000;" d="M132.37,286.15
			c0.02,0.06,0.04,0.12,0.06,0.19c0.96,3.6,1.44,7.91,1.44,12.94c0,3.86-0.22,7.4-0.66,10.63c-0.09,0.63,0.34,1.2,0.9,1.2h8.05
			c0.51,0,0.92-0.46,0.92-1.03v-22.89c0-0.57-0.41-1.03-0.92-1.03H132.37z"/>
		
			<linearGradient id="SVGID_00000096035255044130866990000007563687740751404439_" gradientUnits="userSpaceOnUse" x1="131.6203" y1="370.9602" x2="132.5374" y2="148.0812">
			<stop  offset="0" style="stop-color:#FFFFFF"/>
			<stop  offset="1" style="stop-color:#000000"/>
		</linearGradient>
		<path style="fill:url(#SVGID_00000096035255044130866990000007563687740751404439_);stroke:#000000;" d="M128.68,276.73
			c1.41,2.56,2.57,5.46,3.49,8.69c0.12,0.43,0.47,0.72,0.87,0.72h9.12c0.51,0,0.92-0.46,0.92-1.03v-22.89
			c0-0.57-0.41-1.03-0.92-1.03h-20.27c-0.51,0-0.92,0.46-0.92,1.03v3.11c0,0.25,0.08,0.5,0.23,0.69c0.75,0.96,1.49,1.91,2.23,2.83
			C125.39,271.31,127.14,273.94,128.68,276.73z"/>
		
			<linearGradient id="SVGID_00000076597164636677297570000011269786494508747404_" gradientUnits="userSpaceOnUse" x1="232.8191" y1="371.3767" x2="233.7363" y2="148.4977">
			<stop  offset="0" style="stop-color:#FFFFFF"/>
			<stop  offset="1" style="stop-color:#000000"/>
		</linearGradient>
		<polygon style="fill:url(#SVGID_00000076597164636677297570000011269786494508747404_);stroke:#000000;" points="240.07,237.22 
			244.47,237.22 244.47,212.27 222.37,212.27 222.37,226.92 240.07,226.92 		"/>
		
			<linearGradient id="SVGID_00000157282244088540940950000012319072445556162467_" gradientUnits="userSpaceOnUse" x1="232.743" y1="371.3764" x2="233.6601" y2="148.4974">
			<stop  offset="0" style="stop-color:#FFFFFF"/>
			<stop  offset="1" style="stop-color:#000000"/>
		</linearGradient>
		
			<rect x="222.37" y="200.22" style="fill:url(#SVGID_00000157282244088540940950000012319072445556162467_);stroke:#000000;" width="22.1" height="12.05"/>
		
			<linearGradient id="SVGID_00000159466927108128253090000002325642618053229700_" gradientUnits="userSpaceOnUse" x1="249.8922" y1="371.4469" x2="250.8094" y2="148.568">
			<stop  offset="0" style="stop-color:#FFFFFF"/>
			<stop  offset="1" style="stop-color:#000000"/>
		</linearGradient>
		
			<rect x="244.47" y="287.13" style="fill:url(#SVGID_00000159466927108128253090000002325642618053229700_);stroke:#000000;" width="11.43" height="24.96"/>
		
			<linearGradient id="SVGID_00000010293355409478653900000002767580862719196297_" gradientUnits="userSpaceOnUse" x1="271.4714" y1="371.5357" x2="272.3886" y2="148.6568">
			<stop  offset="0" style="stop-color:#FFFFFF"/>
			<stop  offset="1" style="stop-color:#000000"/>
		</linearGradient>
		<path style="fill:url(#SVGID_00000010293355409478653900000002767580862719196297_);stroke:#000000;" d="M266.57,226.92h8.77
			c0.36,0,0.69-0.25,0.99-0.74c0.3-0.5,0.55-1.26,0.75-2.3c0.2-1.03,0.35-2.4,0.45-4.1c0.1-1.7,0.15-3.75,0.15-6.15
			c0-0.49-0.01-0.9-0.01-1.36h-11.09V226.92z"/>
		
			<linearGradient id="SVGID_00000160891835263621088160000013435268358626099620_" gradientUnits="userSpaceOnUse" x1="242.0774" y1="371.4148" x2="242.9946" y2="148.5358">
			<stop  offset="0" style="stop-color:#FFFFFF"/>
			<stop  offset="1" style="stop-color:#000000"/>
		</linearGradient>
		
			<rect x="240.07" y="312.09" style="fill:url(#SVGID_00000160891835263621088160000013435268358626099620_);stroke:#000000;" width="4.4" height="24.96"/>
		
			<linearGradient id="SVGID_00000004518595170986718200000003081240906913111226_" gradientUnits="userSpaceOnUse" x1="247.8845" y1="371.4387" x2="248.8017" y2="148.5597">
			<stop  offset="0" style="stop-color:#FFFFFF"/>
			<stop  offset="1" style="stop-color:#000000"/>
		</linearGradient>
		<path style="fill:url(#SVGID_00000004518595170986718200000003081240906913111226_);stroke:#000000;" d="M244.47,359.15v-22.1
			h-4.4v19.42c0,0.83,0.13,1.58,0.39,2.24c0.26,0.66,0.69,1.2,1.29,1.62c0.6,0.41,1.41,0.74,2.43,0.99
			c1.02,0.25,2.29,0.37,3.81,0.37s2.79-0.13,3.81-0.37c1.02-0.25,1.83-0.58,2.43-0.99c0.6-0.41,1.03-0.95,1.29-1.62
			c0.26-0.66,0.39-1.41,0.39-2.24v-19.42h-11.43V359.15z"/>
		
			<linearGradient id="SVGID_00000176765272024292472030000006468607658665381784_" gradientUnits="userSpaceOnUse" x1="249.9949" y1="371.4474" x2="250.912" y2="148.5684">
			<stop  offset="0" style="stop-color:#FFFFFF"/>
			<stop  offset="1" style="stop-color:#000000"/>
		</linearGradient>
		
			<rect x="244.47" y="312.09" style="fill:url(#SVGID_00000176765272024292472030000006468607658665381784_);stroke:#000000;" width="11.43" height="24.96"/>
		
			<linearGradient id="SVGID_00000009575754659607050450000013390031926243308219_" gradientUnits="userSpaceOnUse" x1="254.8413" y1="371.4673" x2="255.7585" y2="148.5883">
			<stop  offset="0" style="stop-color:#FFFFFF"/>
			<stop  offset="1" style="stop-color:#000000"/>
		</linearGradient>
		
			<rect x="244.47" y="200.22" style="fill:url(#SVGID_00000009575754659607050450000013390031926243308219_);stroke:#000000;" width="22.1" height="12.05"/>
		
			<linearGradient id="SVGID_00000167394374680814893300000008063116654199949973_" gradientUnits="userSpaceOnUse" x1="219.7202" y1="371.3228" x2="220.6374" y2="148.4438">
			<stop  offset="0" style="stop-color:#FFFFFF"/>
			<stop  offset="1" style="stop-color:#000000"/>
		</linearGradient>
		<path style="fill:url(#SVGID_00000167394374680814893300000008063116654199949973_);stroke:#000000;" d="M218.45,219.78
			c0.1,1.7,0.25,3.06,0.45,4.1c0.2,1.04,0.44,1.8,0.72,2.3c0.28,0.5,0.62,0.74,1.02,0.74h1.74v-14.65h-4.06
			c0,0.46-0.01,0.87-0.01,1.36C218.3,216.03,218.35,218.08,218.45,219.78z"/>
		
			<linearGradient id="SVGID_00000114752135975534733980000005715484181342402735_" gradientUnits="userSpaceOnUse" x1="219.6948" y1="371.3227" x2="220.612" y2="148.4437">
			<stop  offset="0" style="stop-color:#FFFFFF"/>
			<stop  offset="1" style="stop-color:#000000"/>
		</linearGradient>
		<path style="fill:url(#SVGID_00000114752135975534733980000005715484181342402735_);stroke:#000000;" d="M222.38,200.22h-1.74
			c-0.4,0-0.74,0.23-1.02,0.68c-0.28,0.46-0.52,1.2-0.72,2.24c-0.2,1.04-0.35,2.42-0.45,4.16c-0.08,1.4-0.12,3.1-0.13,4.97h4.06
			V200.22z"/>
		
			<linearGradient id="SVGID_00000160186474222813355730000002976060874293384848_" gradientUnits="userSpaceOnUse" x1="241.7693" y1="371.4135" x2="242.6865" y2="148.5345">
			<stop  offset="0" style="stop-color:#FFFFFF"/>
			<stop  offset="1" style="stop-color:#000000"/>
		</linearGradient>
		
			<rect x="240.07" y="237.22" style="fill:url(#SVGID_00000160186474222813355730000002976060874293384848_);stroke:#000000;" width="4.4" height="24.96"/>
		
			<linearGradient id="SVGID_00000124126113356578838150000013661064180413781669_" gradientUnits="userSpaceOnUse" x1="271.4357" y1="371.5356" x2="272.3529" y2="148.6566">
			<stop  offset="0" style="stop-color:#FFFFFF"/>
			<stop  offset="1" style="stop-color:#000000"/>
		</linearGradient>
		<path style="fill:url(#SVGID_00000124126113356578838150000013661064180413781669_);stroke:#000000;" d="M277.66,212.27
			c-0.02-1.88-0.06-3.58-0.13-4.97c-0.1-1.74-0.25-3.12-0.45-4.16c-0.2-1.03-0.45-1.78-0.75-2.24c-0.3-0.45-0.63-0.68-0.99-0.68
			h-8.77v12.05H277.66z"/>
		
			<linearGradient id="SVGID_00000142884517733570824700000007465663364223029377_" gradientUnits="userSpaceOnUse" x1="254.8963" y1="371.4675" x2="255.8134" y2="148.5885">
			<stop  offset="0" style="stop-color:#FFFFFF"/>
			<stop  offset="1" style="stop-color:#000000"/>
		</linearGradient>
		<polygon style="fill:url(#SVGID_00000142884517733570824700000007465663364223029377_);stroke:#000000;" points="255.9,237.22 
			255.9,226.92 266.57,226.92 266.57,212.27 244.47,212.27 244.47,237.22 		"/>
		
			<linearGradient id="SVGID_00000073689887511228988550000012664214970420265631_" gradientUnits="userSpaceOnUse" x1="249.7895" y1="371.4465" x2="250.7066" y2="148.5675">
			<stop  offset="0" style="stop-color:#FFFFFF"/>
			<stop  offset="1" style="stop-color:#000000"/>
		</linearGradient>
		
			<rect x="244.47" y="262.18" style="fill:url(#SVGID_00000073689887511228988550000012664214970420265631_);stroke:#000000;" width="11.43" height="24.96"/>
		
			<linearGradient id="SVGID_00000074416877374817399410000006908124019738358951_" gradientUnits="userSpaceOnUse" x1="241.872" y1="371.4139" x2="242.7892" y2="148.535">
			<stop  offset="0" style="stop-color:#FFFFFF"/>
			<stop  offset="1" style="stop-color:#000000"/>
		</linearGradient>
		
			<rect x="240.07" y="262.18" style="fill:url(#SVGID_00000074416877374817399410000006908124019738358951_);stroke:#000000;" width="4.4" height="24.96"/>
		
			<linearGradient id="SVGID_00000077306962140794525740000015769137297447805604_" gradientUnits="userSpaceOnUse" x1="241.9747" y1="371.4144" x2="242.8919" y2="148.5354">
			<stop  offset="0" style="stop-color:#FFFFFF"/>
			<stop  offset="1" style="stop-color:#000000"/>
		</linearGradient>
		
			<rect x="240.07" y="287.13" style="fill:url(#SVGID_00000077306962140794525740000015769137297447805604_);stroke:#000000;" width="4.4" height="24.96"/>
		
			<linearGradient id="SVGID_00000061473114903672824300000013561721289961954976_" gradientUnits="userSpaceOnUse" x1="249.6868" y1="371.4461" x2="250.604" y2="148.5671">
			<stop  offset="0" style="stop-color:#FFFFFF"/>
			<stop  offset="1" style="stop-color:#000000"/>
		</linearGradient>
		
			<rect x="244.47" y="237.22" style="fill:url(#SVGID_00000061473114903672824300000013561721289961954976_);stroke:#000000;" width="11.43" height="24.96"/>
		
			<linearGradient id="SVGID_00000078041013279494198910000012617579663522824320_" gradientUnits="userSpaceOnUse" x1="331.4895" y1="371.7827" x2="332.4067" y2="148.9037">
			<stop  offset="0" style="stop-color:#FFFFFF"/>
			<stop  offset="1" style="stop-color:#000000"/>
		</linearGradient>
		<polygon style="fill:url(#SVGID_00000078041013279494198910000012617579663522824320_);stroke:#000000;" points="325.95,286.15 
			322.75,311.1 340.72,311.1 340.72,286.15 		"/>
		
			<linearGradient id="SVGID_00000010279569373909402550000014237781560798755739_" gradientUnits="userSpaceOnUse" x1="373.6727" y1="371.9563" x2="374.5899" y2="149.0773">
			<stop  offset="0" style="stop-color:#FFFFFF"/>
			<stop  offset="1" style="stop-color:#000000"/>
		</linearGradient>
		<polygon style="fill:url(#SVGID_00000010279569373909402550000014237781560798755739_);stroke:#000000;" points="384.92,318.83 
			383.93,311.1 362.82,311.1 362.82,311.95 367.16,311.95 370.14,336.06 384.92,336.06 		"/>
		
			<linearGradient id="SVGID_00000085945209673519305570000014923075558138338966_" gradientUnits="userSpaceOnUse" x1="385.8451" y1="372.0064" x2="386.7623" y2="149.1274">
			<stop  offset="0" style="stop-color:#FFFFFF"/>
			<stop  offset="1" style="stop-color:#000000"/>
		</linearGradient>
		<polygon style="fill:url(#SVGID_00000085945209673519305570000014923075558138338966_);stroke:#000000;" points="384.92,336.06 
			387.14,336.06 384.92,318.83 		"/>
		
			<linearGradient id="SVGID_00000121262271344953102860000003379303956433445018_" gradientUnits="userSpaceOnUse" x1="379.5078" y1="371.9803" x2="380.425" y2="149.1013">
			<stop  offset="0" style="stop-color:#FFFFFF"/>
			<stop  offset="1" style="stop-color:#000000"/>
		</linearGradient>
		<path style="fill:url(#SVGID_00000121262271344953102860000003379303956433445018_);stroke:#000000;" d="M384.92,359.39v-23.33
			h-14.78l2.25,18.2c0.16,1.41,0.36,2.55,0.6,3.42c0.24,0.87,0.66,1.54,1.26,2.03c0.6,0.49,1.47,0.81,2.61,0.98
			c1.14,0.16,2.73,0.24,4.77,0.24c1.96,0,3.5-0.14,4.62-0.41c1.12-0.27,1.9-0.98,2.34-2.12c0.44-1.14,0.6-2.85,0.48-5.12
			c-0.12-2.28-0.42-5.37-0.9-9.27l-1.02-7.95h-2.21V359.39z"/>
		
			<linearGradient id="SVGID_00000093168557837085167520000016698779257016179355_" gradientUnits="userSpaceOnUse" x1="371.3666" y1="371.9468" x2="372.2838" y2="149.0679">
			<stop  offset="0" style="stop-color:#FFFFFF"/>
			<stop  offset="1" style="stop-color:#000000"/>
		</linearGradient>
		<polygon style="fill:url(#SVGID_00000093168557837085167520000016698779257016179355_);stroke:#000000;" points="362.82,261.19 
			362.82,273.51 363.51,279.09 362.82,279.09 362.82,286.15 380.72,286.15 377.51,261.19 		"/>
		
			<linearGradient id="SVGID_00000046306045353222921900000008231530648815697837_" gradientUnits="userSpaceOnUse" x1="332.9854" y1="371.7889" x2="333.9026" y2="148.9099">
			<stop  offset="0" style="stop-color:#FFFFFF"/>
			<stop  offset="1" style="stop-color:#000000"/>
		</linearGradient>
		<polygon style="fill:url(#SVGID_00000046306045353222921900000008231530648815697837_);stroke:#000000;" points="329.15,261.19 
			325.95,286.15 340.72,286.15 340.72,261.19 		"/>
		
			<linearGradient id="SVGID_00000148629160957318297140000014094990834033848461_" gradientUnits="userSpaceOnUse" x1="373.57" y1="371.9559" x2="374.4872" y2="149.0769">
			<stop  offset="0" style="stop-color:#FFFFFF"/>
			<stop  offset="1" style="stop-color:#000000"/>
		</linearGradient>
		<polygon style="fill:url(#SVGID_00000148629160957318297140000014094990834033848461_);stroke:#000000;" points="363.32,286.15 
			363.32,311.1 384.42,311.1 381.22,286.15 		"/>
		
			<linearGradient id="SVGID_00000021105598286333868040000002650462453558829221_" gradientUnits="userSpaceOnUse" x1="351.4716" y1="371.865" x2="352.3888" y2="148.986">
			<stop  offset="0" style="stop-color:#FFFFFF"/>
			<stop  offset="1" style="stop-color:#000000"/>
		</linearGradient>
		
			<rect x="340.72" y="286.15" style="fill:url(#SVGID_00000021105598286333868040000002650462453558829221_);stroke:#000000;" width="22.1" height="24.96"/>
		
			<linearGradient id="SVGID_00000041254831823267408470000001953458943730148497_" gradientUnits="userSpaceOnUse" x1="335.9773" y1="371.8012" x2="336.8945" y2="148.9222">
			<stop  offset="0" style="stop-color:#FFFFFF"/>
			<stop  offset="1" style="stop-color:#000000"/>
		</linearGradient>
		<polygon style="fill:url(#SVGID_00000041254831823267408470000001953458943730148497_);stroke:#000000;" points="340.72,236.24 
			340.72,211.28 335.54,211.28 332.35,236.24 		"/>
		
			<linearGradient id="SVGID_00000021834809447083653520000011003944207309197713_" gradientUnits="userSpaceOnUse" x1="344.6066" y1="371.8367" x2="345.5238" y2="148.9577">
			<stop  offset="0" style="stop-color:#FFFFFF"/>
			<stop  offset="1" style="stop-color:#000000"/>
		</linearGradient>
		<polygon style="fill:url(#SVGID_00000021834809447083653520000011003944207309197713_);stroke:#000000;" points="346.75,236.24 
			349.81,211.28 340.72,211.28 340.72,236.24 		"/>
		
			<linearGradient id="SVGID_00000006694323419721102180000007652947838392263082_" gradientUnits="userSpaceOnUse" x1="367.9533" y1="371.9328" x2="368.8705" y2="149.0538">
			<stop  offset="0" style="stop-color:#FFFFFF"/>
			<stop  offset="1" style="stop-color:#000000"/>
		</linearGradient>
		<polygon style="fill:url(#SVGID_00000006694323419721102180000007652947838392263082_);stroke:#000000;" points="374.3,236.24 
			371.1,211.28 362.82,211.28 362.82,236.24 		"/>
		
			<linearGradient id="SVGID_00000134949653984543526530000013428193857814589077_" gradientUnits="userSpaceOnUse" x1="351.5247" y1="371.8652" x2="352.4419" y2="148.9862">
			<stop  offset="0" style="stop-color:#FFFFFF"/>
			<stop  offset="1" style="stop-color:#000000"/>
		</linearGradient>
		
			<rect x="340.72" y="311.1" style="fill:url(#SVGID_00000134949653984543526530000013428193857814589077_);stroke:#000000;" width="22.1" height="0.85"/>
		
			<linearGradient id="SVGID_00000182490319652676385660000007473886779206881974_" gradientUnits="userSpaceOnUse" x1="358.3966" y1="371.8935" x2="359.3138" y2="149.0145">
			<stop  offset="0" style="stop-color:#FFFFFF"/>
			<stop  offset="1" style="stop-color:#000000"/>
		</linearGradient>
		<polygon style="fill:url(#SVGID_00000182490319652676385660000007473886779206881974_);stroke:#000000;" points="362.82,236.24 
			362.82,211.28 355.19,211.28 358.25,236.24 		"/>
		
			<linearGradient id="SVGID_00000052825495064525789710000003745476560459035573_" gradientUnits="userSpaceOnUse" x1="350.9776" y1="371.8629" x2="351.8948" y2="148.9839">
			<stop  offset="0" style="stop-color:#FFFFFF"/>
			<stop  offset="1" style="stop-color:#000000"/>
		</linearGradient>
		<polygon style="fill:url(#SVGID_00000052825495064525789710000003745476560459035573_);stroke:#000000;" points="340.72,186.33 
			362.82,186.33 362.82,161.37 341.94,161.37 340.72,170.85 		"/>
		
			<linearGradient id="SVGID_00000173146176190219034170000012479415663072946068_" gradientUnits="userSpaceOnUse" x1="366.2467" y1="371.9258" x2="367.1639" y2="149.0468">
			<stop  offset="0" style="stop-color:#FFFFFF"/>
			<stop  offset="1" style="stop-color:#000000"/>
		</linearGradient>
		<polygon style="fill:url(#SVGID_00000173146176190219034170000012479415663072946068_);stroke:#000000;" points="371.1,211.28 
			367.89,186.33 362.82,186.33 362.82,211.28 		"/>
		
			<linearGradient id="SVGID_00000116932903868094981530000001839232981189370041_" gradientUnits="userSpaceOnUse" x1="337.4732" y1="371.8073" x2="338.3904" y2="148.9284">
			<stop  offset="0" style="stop-color:#FFFFFF"/>
			<stop  offset="1" style="stop-color:#000000"/>
		</linearGradient>
		<polygon style="fill:url(#SVGID_00000116932903868094981530000001839232981189370041_);stroke:#000000;" points="340.72,211.28 
			340.72,186.33 338.74,186.33 335.54,211.28 		"/>
		
			<linearGradient id="SVGID_00000068676796224361676390000014725787965760040348_" gradientUnits="userSpaceOnUse" x1="364.54" y1="371.9187" x2="365.4572" y2="149.0398">
			<stop  offset="0" style="stop-color:#FFFFFF"/>
			<stop  offset="1" style="stop-color:#000000"/>
		</linearGradient>
		<polygon style="fill:url(#SVGID_00000068676796224361676390000014725787965760040348_);stroke:#000000;" points="362.82,186.33 
			367.89,186.33 364.68,161.37 362.82,161.37 		"/>
		
			<linearGradient id="SVGID_00000118391884665869559320000010746362940649144724_" gradientUnits="userSpaceOnUse" x1="369.66" y1="371.9398" x2="370.5772" y2="149.0608">
			<stop  offset="0" style="stop-color:#FFFFFF"/>
			<stop  offset="1" style="stop-color:#000000"/>
		</linearGradient>
		<polygon style="fill:url(#SVGID_00000118391884665869559320000010746362940649144724_);stroke:#000000;" points="362.82,236.24 
			362.82,261.19 377.51,261.19 374.3,236.24 		"/>
		
			<linearGradient id="SVGID_00000075123374664881451570000006729694152138849708_" gradientUnits="userSpaceOnUse" x1="326.7483" y1="371.7632" x2="327.6655" y2="148.8842">
			<stop  offset="0" style="stop-color:#FFFFFF"/>
			<stop  offset="1" style="stop-color:#000000"/>
		</linearGradient>
		<path style="fill:url(#SVGID_00000075123374664881451570000006729694152138849708_);stroke:#000000;" d="M318.62,343.34v15.83
			c0.41,0.62,0.94,1.06,1.64,1.28c1.04,0.33,2.48,0.49,4.32,0.49c1.72,0,3.11-0.11,4.17-0.33s1.88-0.62,2.46-1.22
			c0.58-0.6,1-1.41,1.26-2.44c0.26-1.03,0.47-2.3,0.63-3.82l2.04-17.06h-15.58L318.62,343.34z"/>
		
			<linearGradient id="SVGID_00000171710149851857761360000015265124311763517315_" gradientUnits="userSpaceOnUse" x1="329.9439" y1="371.7764" x2="330.8611" y2="148.8974">
			<stop  offset="0" style="stop-color:#FFFFFF"/>
			<stop  offset="1" style="stop-color:#000000"/>
		</linearGradient>
		<polygon style="fill:url(#SVGID_00000171710149851857761360000015265124311763517315_);stroke:#000000;" points="340.72,311.95 
			340.72,311.1 322.75,311.1 319.56,336.06 335.14,336.06 338.02,311.95 		"/>
		
			<linearGradient id="SVGID_00000091723515068089027960000017401663406245005739_" gradientUnits="userSpaceOnUse" x1="362.8642" y1="371.9118" x2="363.7814" y2="149.0329">
			<stop  offset="0" style="stop-color:#FFFFFF"/>
			<stop  offset="1" style="stop-color:#000000"/>
		</linearGradient>
		<path style="fill:url(#SVGID_00000091723515068089027960000017401663406245005739_);stroke:#000000;" d="M364.68,161.37
			l-0.51-3.99c-0.24-2.06-0.53-3.69-0.87-4.88c-0.12-0.42-0.3-0.75-0.47-1.1v9.97H364.68z"/>
		
			<linearGradient id="SVGID_00000049183006516443996740000004244286746007256193_" gradientUnits="userSpaceOnUse" x1="351.0608" y1="371.8633" x2="351.978" y2="148.9843">
			<stop  offset="0" style="stop-color:#FFFFFF"/>
			<stop  offset="1" style="stop-color:#000000"/>
		</linearGradient>
		<polygon style="fill:url(#SVGID_00000049183006516443996740000004244286746007256193_);stroke:#000000;" points="349.81,211.28 
			352.47,189.59 352.53,189.59 355.19,211.28 362.82,211.28 362.82,186.33 340.72,186.33 340.72,211.28 		"/>
		
			<linearGradient id="SVGID_00000107553785195656032660000010249625596826181530_" gradientUnits="userSpaceOnUse" x1="351.5143" y1="371.8651" x2="352.4315" y2="148.9862">
			<stop  offset="0" style="stop-color:#FFFFFF"/>
			<stop  offset="1" style="stop-color:#000000"/>
		</linearGradient>
		<path style="fill:url(#SVGID_00000107553785195656032660000010249625596826181530_);stroke:#000000;" d="M362.82,151.4
			c-0.32-0.64-0.7-1.2-1.21-1.59c-0.78-0.6-1.87-0.98-3.27-1.14s-3.28-0.24-5.64-0.24c-2.04,0-3.68,0.08-4.92,0.24
			c-1.24,0.16-2.21,0.54-2.91,1.14c-0.7,0.6-1.21,1.46-1.53,2.6c-0.32,1.14-0.6,2.63-0.84,4.48l-0.57,4.48h20.88V151.4z"/>
		
			<linearGradient id="SVGID_00000036937107770995074760000003766352176025071515_" gradientUnits="userSpaceOnUse" x1="360.0297" y1="371.9002" x2="360.9469" y2="149.0212">
			<stop  offset="0" style="stop-color:#FFFFFF"/>
			<stop  offset="1" style="stop-color:#000000"/>
		</linearGradient>
		<polygon style="fill:url(#SVGID_00000036937107770995074760000003766352176025071515_);stroke:#000000;" points="358.25,236.24 
			361.31,261.19 362.82,261.19 362.82,236.24 		"/>
		
			<linearGradient id="SVGID_00000064317478483512566490000003283335106891086214_" gradientUnits="userSpaceOnUse" x1="334.4814" y1="371.795" x2="335.3986" y2="148.9161">
			<stop  offset="0" style="stop-color:#FFFFFF"/>
			<stop  offset="1" style="stop-color:#000000"/>
		</linearGradient>
		<polygon style="fill:url(#SVGID_00000064317478483512566490000003283335106891086214_);stroke:#000000;" points="332.35,236.24 
			329.15,261.19 340.72,261.19 340.72,236.24 		"/>
		<path class="st74" d="M318.58,343.68c-0.48,3.8-0.78,6.83-0.9,9.11c-0.12,2.28,0.02,4.04,0.42,5.29c0.13,0.42,0.32,0.77,0.52,1.08
			v-15.83L318.58,343.68z"/>
		
			<linearGradient id="SVGID_00000031928864548911265310000003775299480499876784_" gradientUnits="userSpaceOnUse" x1="343.1789" y1="371.8308" x2="344.0961" y2="148.9519">
			<stop  offset="0" style="stop-color:#FFFFFF"/>
			<stop  offset="1" style="stop-color:#000000"/>
		</linearGradient>
		<polygon style="fill:url(#SVGID_00000031928864548911265310000003775299480499876784_);stroke:#000000;" points="340.72,236.24 
			340.72,261.19 343.69,261.19 346.75,236.24 		"/>
		
			<linearGradient id="SVGID_00000091727402245865215240000011986319293494853544_" gradientUnits="userSpaceOnUse" x1="338.9692" y1="371.8135" x2="339.8864" y2="148.9345">
			<stop  offset="0" style="stop-color:#FFFFFF"/>
			<stop  offset="1" style="stop-color:#000000"/>
		</linearGradient>
		<polygon style="fill:url(#SVGID_00000091727402245865215240000011986319293494853544_);stroke:#000000;" points="340.72,170.85 
			338.74,186.33 340.72,186.33 		"/>
		
			<linearGradient id="SVGID_00000068668699878024680790000006373401402871222195_" gradientUnits="userSpaceOnUse" x1="361.6368" y1="371.9068" x2="362.554" y2="149.0278">
			<stop  offset="0" style="stop-color:#FFFFFF"/>
			<stop  offset="1" style="stop-color:#000000"/>
		</linearGradient>
		<polygon style="fill:url(#SVGID_00000068668699878024680790000006373401402871222195_);stroke:#000000;" points="362.82,273.51 
			362.82,261.19 361.31,261.19 		"/>
		
			<linearGradient id="SVGID_00000065041885111476429130000010665668954656210308_" gradientUnits="userSpaceOnUse" x1="351.3689" y1="371.8645" x2="352.2861" y2="148.9855">
			<stop  offset="0" style="stop-color:#FFFFFF"/>
			<stop  offset="1" style="stop-color:#000000"/>
		</linearGradient>
		<polygon style="fill:url(#SVGID_00000065041885111476429130000010665668954656210308_);stroke:#000000;" points="341.49,279.09 
			343.69,261.19 340.72,261.19 340.72,286.15 362.82,286.15 362.82,279.09 		"/>
		
			<linearGradient id="SVGID_00000168825706195060408280000006738546794268734127_" gradientUnits="userSpaceOnUse" x1="445.3466" y1="372.2513" x2="446.2639" y2="149.3723">
			<stop  offset="0" style="stop-color:#FFFFFF"/>
			<stop  offset="1" style="stop-color:#000000"/>
		</linearGradient>
		<path style="fill:url(#SVGID_00000168825706195060408280000006738546794268734127_);stroke:#000000;" d="M454.74,257.65h-2.86
			c-2.97,2.18-5.62,4.93-7.93,8.3c-3.09,4.51-5.5,10.07-7.25,16.66h17.85c0.06-0.16,0.12-0.33,0.19-0.49V257.65z"/>
		
			<linearGradient id="SVGID_00000160171302130109510900000007250498501174449847_" gradientUnits="userSpaceOnUse" x1="452.833" y1="372.2821" x2="453.7502" y2="149.4031">
			<stop  offset="0" style="stop-color:#FFFFFF"/>
			<stop  offset="1" style="stop-color:#000000"/>
		</linearGradient>
		<path style="fill:url(#SVGID_00000160171302130109510900000007250498501174449847_);stroke:#000000;" d="M451.87,257.65h2.86
			v-1.84C453.75,256.37,452.79,256.97,451.87,257.65z"/>
		
			<linearGradient id="SVGID_00000136394406143280378660000001095451974629195443_" gradientUnits="userSpaceOnUse" x1="465.3397" y1="372.3336" x2="466.2569" y2="149.4546">
			<stop  offset="0" style="stop-color:#FFFFFF"/>
			<stop  offset="1" style="stop-color:#000000"/>
		</linearGradient>
		<path style="fill:url(#SVGID_00000136394406143280378660000001095451974629195443_);stroke:#000000;" d="M454.74,257.65v24.46
			c0.44-1.06,0.9-2.07,1.42-3.01c1.7-3.1,3.76-5.49,6.18-7.16c2.42-1.67,5.17-2.5,8.25-2.5c2.37,0,4.45,0.36,6.26,1.02v-12.81
			H454.74z"/>
		
			<linearGradient id="SVGID_00000078041141854035378100000003138957918166807698_" gradientUnits="userSpaceOnUse" x1="481.4221" y1="372.3997" x2="482.3394" y2="149.5208">
			<stop  offset="0" style="stop-color:#FFFFFF"/>
			<stop  offset="1" style="stop-color:#000000"/>
		</linearGradient>
		<path style="fill:url(#SVGID_00000078041141854035378100000003138957918166807698_);stroke:#000000;" d="M481.7,254.46
			c-1.5-0.68-3.14-1.22-4.87-1.67v4.86h10.14c-0.22-0.17-0.44-0.34-0.68-0.53C484.93,256.12,483.4,255.23,481.7,254.46z"/>
		
			<linearGradient id="SVGID_00000009548927618162881640000010028295825521529003_" gradientUnits="userSpaceOnUse" x1="465.3095" y1="372.3334" x2="466.2267" y2="149.4545">
			<stop  offset="0" style="stop-color:#FFFFFF"/>
			<stop  offset="1" style="stop-color:#000000"/>
		</linearGradient>
		<path style="fill:url(#SVGID_00000009548927618162881640000010028295825521529003_);stroke:#000000;" d="M476.83,252.79
			c-0.23-0.06-0.44-0.14-0.68-0.19c-2-0.48-4.08-0.72-6.24-0.72c-5.32,0-10.19,1.19-14.6,3.58c-0.2,0.11-0.38,0.25-0.58,0.36v1.84
			h22.1V252.79z"/>
		
			<linearGradient id="SVGID_00000083064712821539533830000007272533284107699117_" gradientUnits="userSpaceOnUse" x1="483.5151" y1="372.4084" x2="484.4323" y2="149.5294">
			<stop  offset="0" style="stop-color:#FFFFFF"/>
			<stop  offset="1" style="stop-color:#000000"/>
		</linearGradient>
		<path style="fill:url(#SVGID_00000083064712821539533830000007272533284107699117_);stroke:#000000;" d="M476.83,270.46
			c0.33,0.12,0.66,0.23,0.97,0.37c2.02,0.93,3.76,1.96,5.22,3.1c1.46,1.14,2.65,2.17,3.57,3.1c0.92,0.93,1.68,1.39,2.28,1.39
			c0.36,0,0.68-0.16,0.96-0.48c0.28-0.32,0.52-0.82,0.72-1.51c0.2-0.69,0.34-1.59,0.42-2.7c0.08-1.11,0.12-2.46,0.12-4.05
			c0-1.48-0.03-2.73-0.09-3.74c-0.06-1-0.15-1.88-0.27-2.62c-0.12-0.74-0.28-1.35-0.48-1.83c-0.2-0.48-0.57-1.07-1.11-1.79
			c-0.44-0.59-1.18-1.28-2.17-2.06h-10.14V270.46z"/>
		
			<linearGradient id="SVGID_00000090257593406407948650000011165049217633593732_" gradientUnits="userSpaceOnUse" x1="443.9163" y1="372.2454" x2="444.8335" y2="149.3664">
			<stop  offset="0" style="stop-color:#FFFFFF"/>
			<stop  offset="1" style="stop-color:#000000"/>
		</linearGradient>
		<path style="fill:url(#SVGID_00000090257593406407948650000011165049217633593732_);stroke:#000000;" d="M452.28,290.35
			c0.57-2.87,1.34-5.43,2.26-7.75H436.7c-0.04,0.15-0.09,0.28-0.13,0.43c-1.76,6.78-2.64,14.55-2.64,23.29
			c0,0.42,0.03,0.81,0.03,1.23h17.05c-0.02-0.78-0.05-1.54-0.05-2.34C450.96,299.7,451.4,294.75,452.28,290.35z"/>
		
			<linearGradient id="SVGID_00000011740664084953887860000012482795053085200024_" gradientUnits="userSpaceOnUse" x1="444.1322" y1="372.2463" x2="445.0494" y2="149.3673">
			<stop  offset="0" style="stop-color:#FFFFFF"/>
			<stop  offset="1" style="stop-color:#000000"/>
		</linearGradient>
		<path style="fill:url(#SVGID_00000011740664084953887860000012482795053085200024_);stroke:#000000;" d="M454.74,328.53
			c-0.95-2.22-1.75-4.73-2.36-7.62c-0.81-3.83-1.25-8.31-1.36-13.36h-17.05c0.07,8.06,0.85,15.2,2.37,21.35
			c0.31,1.26,0.67,2.44,1.03,3.61h17.37V328.53z"/>
		
			<linearGradient id="SVGID_00000154425491158930854190000000161196819749701801_" gradientUnits="userSpaceOnUse" x1="455.6196" y1="372.2935" x2="456.5368" y2="149.4146">
			<stop  offset="0" style="stop-color:#FFFFFF"/>
			<stop  offset="1" style="stop-color:#000000"/>
		</linearGradient>
		<path style="fill:url(#SVGID_00000154425491158930854190000000161196819749701801_);stroke:#000000;" d="M454.74,328.53v3.98h2.11
			c-0.15-0.23-0.31-0.43-0.46-0.67C455.79,330.85,455.25,329.72,454.74,328.53z"/>
		
			<linearGradient id="SVGID_00000018212703078158526380000003171151105937125765_" gradientUnits="userSpaceOnUse" x1="489.0639" y1="372.4312" x2="489.9811" y2="149.5522">
			<stop  offset="0" style="stop-color:#FFFFFF"/>
			<stop  offset="1" style="stop-color:#000000"/>
		</linearGradient>
		<path style="fill:url(#SVGID_00000018212703078158526380000003171151105937125765_);stroke:#000000;" d="M489.29,332.01
			c-0.32,0-0.73,0.18-1.22,0.51h2.31c-0.04-0.06-0.08-0.15-0.13-0.19C490.01,332.11,489.69,332.01,489.29,332.01z"/>
		
			<linearGradient id="SVGID_00000067201828198384148250000001461014876956896917_" gradientUnits="userSpaceOnUse" x1="464.1993" y1="372.3289" x2="465.1165" y2="149.4499">
			<stop  offset="0" style="stop-color:#FFFFFF"/>
			<stop  offset="1" style="stop-color:#000000"/>
		</linearGradient>
		<path style="fill:url(#SVGID_00000067201828198384148250000001461014876956896917_);stroke:#000000;" d="M487.1,333.28
			c-0.94,0.85-2.14,1.8-3.6,2.86c-1.46,1.06-3.21,2.03-5.25,2.9c-0.45,0.19-0.93,0.36-1.42,0.51v16.3v-16.3
			c-1.72,0.53-3.66,0.8-5.84,0.8c-3.08,0-5.85-0.7-8.31-2.11c-2.25-1.29-4.19-3.22-5.84-5.73h-2.11v22.1v-22.1h-17.37
			c1.51,4.87,3.45,9.09,5.87,12.57c3,4.32,6.64,7.57,10.92,9.74c4.28,2.17,9.08,3.26,14.4,3.26c2.72,0,5.25-0.29,7.59-0.88
			c2.34-0.58,4.42-1.31,6.24-2.18c1.82-0.88,3.36-1.79,4.62-2.74c1.26-0.96,2.11-1.74,2.55-2.35c0.44-0.61,0.76-1.15,0.96-1.63
			c0.2-0.48,0.36-1.04,0.48-1.71c0.12-0.66,0.21-1.46,0.27-2.39c0.06-0.92,0.09-2.05,0.09-3.38c0-1.91-0.04-3.43-0.12-4.57
			c-0.08-1.14-0.2-2.03-0.36-2.66c-0.13-0.51-0.29-0.84-0.47-1.08h-2.31C487.78,332.71,487.46,332.95,487.1,333.28z"/>
		
			<linearGradient id="SVGID_00000124850599319760607470000014025121754325929361_" gradientUnits="userSpaceOnUse" x1="577.0228" y1="372.7932" x2="577.94" y2="149.9142">
			<stop  offset="0" style="stop-color:#FFFFFF"/>
			<stop  offset="1" style="stop-color:#000000"/>
		</linearGradient>
		<polygon style="fill:url(#SVGID_00000124850599319760607470000014025121754325929361_);stroke:#000000;" points="576.46,267.39 
			578.5,261.87 576.46,261.87 		"/>
		
			<linearGradient id="SVGID_00000083767722862428675840000011786502844389636282_" gradientUnits="userSpaceOnUse" x1="577.0342" y1="372.7932" x2="577.9514" y2="149.9142">
			<stop  offset="0" style="stop-color:#FFFFFF"/>
			<stop  offset="1" style="stop-color:#000000"/>
		</linearGradient>
		<polygon style="fill:url(#SVGID_00000083767722862428675840000011786502844389636282_);stroke:#000000;" points="578.34,286.83 
			576.46,280.95 576.46,286.83 		"/>
		
			<linearGradient id="SVGID_00000160901016721902432010000015858605590728961409_" gradientUnits="userSpaceOnUse" x1="568.1855" y1="372.7568" x2="569.1027" y2="149.8778">
			<stop  offset="0" style="stop-color:#FFFFFF"/>
			<stop  offset="1" style="stop-color:#000000"/>
		</linearGradient>
		<polygon style="fill:url(#SVGID_00000160901016721902432010000015858605590728961409_);stroke:#000000;" points="568.19,311.78 
			576.46,311.78 576.46,286.83 560.51,286.83 		"/>
		
			<linearGradient id="SVGID_00000116915363900524323590000006792581661406235804_" gradientUnits="userSpaceOnUse" x1="556.1354" y1="372.7072" x2="557.0526" y2="149.8282">
			<stop  offset="0" style="stop-color:#FFFFFF"/>
			<stop  offset="1" style="stop-color:#000000"/>
		</linearGradient>
		
			<rect x="554.36" y="311.78" style="fill:url(#SVGID_00000116915363900524323590000006792581661406235804_);stroke:#000000;" width="3.94" height="24.96"/>
		
			<linearGradient id="SVGID_00000031911611709907830890000010688544989295278212_" gradientUnits="userSpaceOnUse" x1="550.311" y1="372.6832" x2="551.2282" y2="149.8042">
			<stop  offset="0" style="stop-color:#FFFFFF"/>
			<stop  offset="1" style="stop-color:#000000"/>
		</linearGradient>
		<path style="fill:url(#SVGID_00000031911611709907830890000010688544989295278212_);stroke:#000000;" d="M554.36,336.74v23.33
			V336.74h-11.83v19.18c0,0.91,0.13,1.7,0.39,2.36c0.26,0.67,0.69,1.22,1.29,1.68c0.6,0.46,1.41,0.81,2.43,1.06
			c1.02,0.25,2.29,0.37,3.81,0.37c1.56,0,2.84-0.13,3.84-0.37c1-0.25,1.8-0.6,2.4-1.06c0.6-0.45,1.02-1.01,1.26-1.68
			c0.24-0.66,0.36-1.45,0.36-2.36v-19.18H554.36z"/>
		
			<linearGradient id="SVGID_00000115499415094921946890000002939073627267293579_" gradientUnits="userSpaceOnUse" x1="548.248" y1="372.6747" x2="549.1652" y2="149.7958">
			<stop  offset="0" style="stop-color:#FFFFFF"/>
			<stop  offset="1" style="stop-color:#000000"/>
		</linearGradient>
		
			<rect x="542.53" y="311.78" style="fill:url(#SVGID_00000115499415094921946890000002939073627267293579_);stroke:#000000;" width="11.83" height="24.96"/>
		
			<linearGradient id="SVGID_00000023268722856675728230000017346253507990123952_" gradientUnits="userSpaceOnUse" x1="556.0327" y1="372.7068" x2="556.95" y2="149.8278">
			<stop  offset="0" style="stop-color:#FFFFFF"/>
			<stop  offset="1" style="stop-color:#000000"/>
		</linearGradient>
		
			<rect x="554.36" y="286.83" style="fill:url(#SVGID_00000023268722856675728230000017346253507990123952_);stroke:#000000;" width="3.94" height="24.96"/>
		
			<linearGradient id="SVGID_00000104693808460424820400000005660576833680603574_" gradientUnits="userSpaceOnUse" x1="565.0071" y1="372.7437" x2="565.9243" y2="149.8647">
			<stop  offset="0" style="stop-color:#FFFFFF"/>
			<stop  offset="1" style="stop-color:#000000"/>
		</linearGradient>
		<polygon style="fill:url(#SVGID_00000104693808460424820400000005660576833680603574_);stroke:#000000;" points="561.99,261.87 
			558.31,272.94 558.31,261.87 554.36,261.87 554.36,286.83 558.31,286.83 558.31,279.65 560.51,286.83 576.46,286.83 
			576.46,280.95 574.14,273.69 576.46,267.39 576.46,261.87 		"/>
		
			<linearGradient id="SVGID_00000069356619234581978680000000142151431414353041_" gradientUnits="userSpaceOnUse" x1="586.5739" y1="372.8325" x2="587.4911" y2="149.9535">
			<stop  offset="0" style="stop-color:#FFFFFF"/>
			<stop  offset="1" style="stop-color:#000000"/>
		</linearGradient>
		<path style="fill:url(#SVGID_00000069356619234581978680000000142151431414353041_);stroke:#000000;" d="M576.46,236.92h11.24
			l7.74-20.99c1-3.23,1.68-5.59,2.04-7.08c0.36-1.49,0.54-2.94,0.54-4.35c0-0.83-0.12-1.57-0.36-2.24
			c-0.24-0.66-0.67-1.22-1.29-1.68c-0.62-0.45-1.45-0.81-2.49-1.06c-1.04-0.25-2.36-0.37-3.96-0.37c-1.56,0-2.84,0.08-3.84,0.25
			c-1,0.17-1.82,0.46-2.46,0.87c-0.64,0.41-1.16,0.97-1.56,1.68c-0.4,0.71-0.74,1.6-1.02,2.67l-2.44,7.33h17.12H578.6l-2.14,6.43
			V236.92z"/>
		
			<linearGradient id="SVGID_00000173881052475777561650000001736191379141540513_" gradientUnits="userSpaceOnUse" x1="548.0426" y1="372.6739" x2="548.9598" y2="149.7949">
			<stop  offset="0" style="stop-color:#FFFFFF"/>
			<stop  offset="1" style="stop-color:#000000"/>
		</linearGradient>
		
			<rect x="542.53" y="261.87" style="fill:url(#SVGID_00000173881052475777561650000001736191379141540513_);stroke:#000000;" width="11.83" height="24.96"/>
		
			<linearGradient id="SVGID_00000003068197686206736810000014745283854624862866_" gradientUnits="userSpaceOnUse" x1="555.7247" y1="372.7055" x2="556.6418" y2="149.8265">
			<stop  offset="0" style="stop-color:#FFFFFF"/>
			<stop  offset="1" style="stop-color:#000000"/>
		</linearGradient>
		
			<rect x="554.36" y="211.96" style="fill:url(#SVGID_00000003068197686206736810000014745283854624862866_);stroke:#000000;" width="3.94" height="24.96"/>
		
			<linearGradient id="SVGID_00000140004185688240183230000011215545865690321307_" gradientUnits="userSpaceOnUse" x1="587.305" y1="372.8355" x2="588.2222" y2="149.9565">
			<stop  offset="0" style="stop-color:#FFFFFF"/>
			<stop  offset="1" style="stop-color:#000000"/>
		</linearGradient>
		<path style="fill:url(#SVGID_00000140004185688240183230000011215545865690321307_);stroke:#000000;" d="M578.34,286.83h-1.88
			v24.96h7.9h-7.9v24.96h15.71h-15.71v1.95l5.3,17.23c0.28,1.16,0.67,2.15,1.17,2.98c0.5,0.83,1.32,1.45,2.46,1.86
			c1.14,0.41,3.01,0.62,5.61,0.62c1.64,0,3-0.13,4.08-0.37c1.08-0.25,1.93-0.6,2.55-1.06c0.41-0.3,0.7-0.68,0.94-1.09v-7.61
			c-0.28-1.22-0.67-2.82-1.21-4.91L578.34,286.83z"/>
		
			<linearGradient id="SVGID_00000060001339512331516830000012486886698915109813_" gradientUnits="userSpaceOnUse" x1="548.1453" y1="372.6743" x2="549.0625" y2="149.7953">
			<stop  offset="0" style="stop-color:#FFFFFF"/>
			<stop  offset="1" style="stop-color:#000000"/>
		</linearGradient>
		
			<rect x="542.53" y="286.83" style="fill:url(#SVGID_00000060001339512331516830000012486886698915109813_);stroke:#000000;" width="11.83" height="24.96"/>
		
			<linearGradient id="SVGID_00000160176512125444860900000005228812872230382470_" gradientUnits="userSpaceOnUse" x1="572.1251" y1="372.773" x2="573.0423" y2="149.894">
			<stop  offset="0" style="stop-color:#FFFFFF"/>
			<stop  offset="1" style="stop-color:#000000"/>
		</linearGradient>
		<polygon style="fill:url(#SVGID_00000160176512125444860900000005228812872230382470_);stroke:#000000;" points="576.46,311.78 
			568.19,311.78 575.86,336.74 576.46,336.74 		"/>
		
			<linearGradient id="SVGID_00000078046911682938580480000004158270750347561860_" gradientUnits="userSpaceOnUse" x1="576.0174" y1="372.789" x2="576.9346" y2="149.91">
			<stop  offset="0" style="stop-color:#FFFFFF"/>
			<stop  offset="1" style="stop-color:#000000"/>
		</linearGradient>
		<polygon style="fill:url(#SVGID_00000078046911682938580480000004158270750347561860_);stroke:#000000;" points="575.86,336.74 
			576.46,338.69 576.46,336.74 		"/>
		
			<linearGradient id="SVGID_00000110441785226721252280000007145771967505268902_" gradientUnits="userSpaceOnUse" x1="547.7677" y1="372.6728" x2="548.6849" y2="149.7938">
			<stop  offset="0" style="stop-color:#FFFFFF"/>
			<stop  offset="1" style="stop-color:#000000"/>
		</linearGradient>
		<path style="fill:url(#SVGID_00000110441785226721252280000007145771967505268902_);stroke:#000000;" d="M554.36,198.88
			c-0.03-0.01-0.05-0.02-0.07-0.02c-1-0.25-2.28-0.37-3.84-0.37c-1.52,0-2.79,0.12-3.81,0.37c-1.02,0.25-1.83,0.58-2.43,0.99
			c-0.6,0.41-1.03,0.95-1.29,1.61c-0.26,0.66-0.39,1.45-0.39,2.36v7.46h11.83V198.88z"/>
		
			<linearGradient id="SVGID_00000070824434810085747820000001739327572989494184_" gradientUnits="userSpaceOnUse" x1="547.9399" y1="372.6735" x2="548.8571" y2="149.7945">
			<stop  offset="0" style="stop-color:#FFFFFF"/>
			<stop  offset="1" style="stop-color:#000000"/>
		</linearGradient>
		
			<rect x="542.53" y="236.92" style="fill:url(#SVGID_00000070824434810085747820000001739327572989494184_);stroke:#000000;" width="11.83" height="24.96"/>
		
			<linearGradient id="SVGID_00000029044134814246199480000010529781326232406449_" gradientUnits="userSpaceOnUse" x1="547.8372" y1="372.673" x2="548.7544" y2="149.7941">
			<stop  offset="0" style="stop-color:#FFFFFF"/>
			<stop  offset="1" style="stop-color:#000000"/>
		</linearGradient>
		
			<rect x="542.53" y="211.96" style="fill:url(#SVGID_00000029044134814246199480000010529781326232406449_);stroke:#000000;" width="11.83" height="24.96"/>
		
			<linearGradient id="SVGID_00000080919564193731445900000014604522952588121483_" gradientUnits="userSpaceOnUse" x1="555.645" y1="372.7052" x2="556.5622" y2="149.8262">
			<stop  offset="0" style="stop-color:#FFFFFF"/>
			<stop  offset="1" style="stop-color:#000000"/>
		</linearGradient>
		<path style="fill:url(#SVGID_00000080919564193731445900000014604522952588121483_);stroke:#000000;" d="M558.31,211.28v-7.46
			c0-0.91-0.12-1.7-0.36-2.36c-0.24-0.66-0.66-1.2-1.26-1.61c-0.58-0.4-1.36-0.72-2.33-0.97v12.4H558.31z"/>
		
			<linearGradient id="SVGID_00000061433557303845374940000013014611652240796820_" gradientUnits="userSpaceOnUse" x1="581.5201" y1="372.8116" x2="582.4373" y2="149.9327">
			<stop  offset="0" style="stop-color:#FFFFFF"/>
			<stop  offset="1" style="stop-color:#000000"/>
		</linearGradient>
		<polygon style="fill:url(#SVGID_00000061433557303845374940000013014611652240796820_);stroke:#000000;" points="576.46,261.87 
			578.5,261.87 587.7,236.92 576.46,236.92 		"/>
		
			<linearGradient id="SVGID_00000104674653854751032950000012258930167266700441_" gradientUnits="userSpaceOnUse" x1="568.7698" y1="372.7592" x2="569.687" y2="149.8802">
			<stop  offset="0" style="stop-color:#FFFFFF"/>
			<stop  offset="1" style="stop-color:#000000"/>
		</linearGradient>
		<polygon style="fill:url(#SVGID_00000104674653854751032950000012258930167266700441_);stroke:#000000;" points="576.46,261.87 
			576.46,236.92 570.3,236.92 561.99,261.87 		"/>
		
			<linearGradient id="SVGID_00000105394971647869690030000015065379950187349907_" gradientUnits="userSpaceOnUse" x1="572.8192" y1="372.7758" x2="573.7364" y2="149.8969">
			<stop  offset="0" style="stop-color:#FFFFFF"/>
			<stop  offset="1" style="stop-color:#000000"/>
		</linearGradient>
		<polygon style="fill:url(#SVGID_00000105394971647869690030000015065379950187349907_);stroke:#000000;" points="576.46,218.39 
			570.3,236.92 576.46,236.92 		"/>
		
			<linearGradient id="SVGID_00000098182389900947200310000016729370525234414506_" gradientUnits="userSpaceOnUse" x1="555.8273" y1="372.7059" x2="556.7446" y2="149.827">
			<stop  offset="0" style="stop-color:#FFFFFF"/>
			<stop  offset="1" style="stop-color:#000000"/>
		</linearGradient>
		
			<rect x="554.36" y="236.92" style="fill:url(#SVGID_00000098182389900947200310000016729370525234414506_);stroke:#000000;" width="3.94" height="24.96"/>
		<path class="st74" d="M160.31,531.5l-6.54-31.67c-0.76-3.81-1.54-7.22-2.34-10.25c-0.8-3.02-1.65-5.71-2.55-8.07
			c-0.9-2.36-1.86-4.37-2.88-6.02c-1.02-1.65-2.11-3.06-3.27-4.22c2.4-1.57,4.54-3.64,6.42-6.21c1.88-2.57,3.46-5.59,4.74-9.07
			s2.25-7.43,2.91-11.86c0.66-4.43,0.99-9.33,0.99-14.72c0-6.37-0.46-12.03-1.38-16.95c-0.92-4.92-2.25-9.19-3.99-12.79
			c-1.74-3.6-3.86-6.52-6.36-8.76c-2.5-2.24-5.31-3.81-8.43-4.72c-1.08-0.25-2.28-0.45-3.6-0.62c-1.32-0.16-3-0.25-5.04-0.25h-20.09
			c-1.32,0-2.43,0.81-3.33,2.42c-0.9,1.61-1.35,4.24-1.35,7.89v145.95c0,0.83,0.12,1.58,0.36,2.24c0.24,0.66,0.66,1.2,1.26,1.62
			c0.6,0.41,1.41,0.74,2.43,0.99c1.02,0.25,2.29,0.37,3.81,0.37c1.56,0,2.84-0.13,3.84-0.37c1-0.25,1.8-0.58,2.4-0.99
			c0.6-0.41,1.03-0.95,1.29-1.62c0.26-0.66,0.39-1.41,0.39-2.24v-61.23h4.92c1.68,0,3.16,0.54,4.44,1.61
			c1.28,1.08,2.41,2.67,3.39,4.78c0.98,2.11,1.87,4.74,2.67,7.89c0.8,3.15,1.62,6.75,2.46,10.8l6.96,35.9
			c0.16,0.99,0.36,1.84,0.6,2.55c0.24,0.7,0.65,1.29,1.23,1.74c0.58,0.46,1.37,0.77,2.37,0.93c1,0.16,2.34,0.25,4.02,0.25
			c2,0,3.58-0.08,4.74-0.25c1.16-0.17,2.04-0.46,2.64-0.87c0.6-0.41,0.98-0.93,1.14-1.55c0.16-0.62,0.24-1.39,0.24-2.3
			c0-0.83-0.1-1.97-0.3-3.42C161.31,536.94,160.91,534.64,160.31,531.5z M140.64,442.19c-0.56,2.82-1.4,5.24-2.52,7.27
			c-1.12,2.03-2.52,3.6-4.2,4.72c-1.68,1.12-3.64,1.68-5.88,1.68h-8.04v-45.58h7.08c1.8,0,3.21,0.12,4.23,0.37
			c1.02,0.25,1.93,0.58,2.73,0.99c2.64,1.49,4.54,4.06,5.7,7.7c1.16,3.64,1.74,8.12,1.74,13.41
			C141.48,436.23,141.2,439.37,140.64,442.19z"/>
		<path class="st74" d="M221.29,523.67c-0.2-0.99-0.45-1.72-0.75-2.17c-0.3-0.46-0.63-0.68-0.99-0.68H191.6v-45.34h23.45
			c0.36,0,0.69-0.2,0.99-0.62c0.3-0.41,0.55-1.1,0.75-2.05c0.2-0.95,0.35-2.22,0.45-3.79c0.1-1.57,0.15-3.56,0.15-5.96
			c0-2.32-0.05-4.28-0.15-5.9c-0.1-1.62-0.25-2.9-0.45-3.85c-0.2-0.95-0.45-1.65-0.75-2.11c-0.3-0.46-0.63-0.68-0.99-0.68H191.6
			v-39.25h27.71c0.36,0,0.68-0.23,0.96-0.68c0.28-0.45,0.52-1.18,0.72-2.17c0.2-0.99,0.35-2.3,0.45-3.91
			c0.1-1.62,0.15-3.58,0.15-5.9c0-2.48-0.05-4.53-0.15-6.15c-0.1-1.61-0.25-2.94-0.45-3.97c-0.2-1.03-0.44-1.76-0.72-2.17
			c-0.28-0.41-0.6-0.62-0.96-0.62h-38.75c-1.32,0-2.43,0.81-3.33,2.42c-0.9,1.61-1.35,4.24-1.35,7.89v140.11
			c0,3.65,0.45,6.27,1.35,7.89c0.9,1.62,2.01,2.42,3.33,2.42h38.99c0.36,0,0.69-0.23,0.99-0.68c0.3-0.45,0.55-1.18,0.75-2.17
			c0.2-0.99,0.35-2.3,0.45-3.91c0.1-1.62,0.15-3.62,0.15-6.03c0-2.4-0.05-4.41-0.15-6.02C221.64,525.97,221.49,524.66,221.29,523.67
			z"/>
		<path class="st74" d="M292.89,510.38c-0.16-0.99-0.36-1.65-0.6-1.99c-0.24-0.33-0.56-0.5-0.96-0.5c-0.52,0-1.25,0.67-2.19,1.99
			c-0.94,1.33-2.14,2.82-3.6,4.47c-1.46,1.66-3.21,3.17-5.25,4.54c-2.04,1.37-4.46,2.05-7.26,2.05c-3.08,0-5.85-1.1-8.3-3.29
			c-2.46-2.19-4.56-5.53-6.3-10c-1.74-4.47-3.08-10.16-4.02-17.08c-0.94-6.91-1.41-15.09-1.41-24.53c0-8.61,0.44-16.35,1.32-23.23
			c0.88-6.87,2.17-12.73,3.87-17.57c1.7-4.85,3.76-8.57,6.18-11.18c2.42-2.61,5.17-3.91,8.25-3.91c2.8,0,5.21,0.72,7.23,2.17
			s3.76,3.06,5.22,4.84c1.46,1.78,2.65,3.4,3.57,4.85c0.92,1.45,1.68,2.17,2.28,2.17c0.36,0,0.68-0.25,0.96-0.75
			c0.28-0.5,0.52-1.28,0.72-2.36c0.2-1.08,0.34-2.48,0.42-4.22s0.12-3.85,0.12-6.34c0-2.32-0.03-4.26-0.09-5.84
			c-0.06-1.57-0.15-2.94-0.27-4.1c-0.12-1.16-0.28-2.11-0.48-2.86c-0.2-0.75-0.57-1.68-1.11-2.79c-0.54-1.12-1.49-2.46-2.85-4.04
			c-1.36-1.57-2.89-2.96-4.59-4.16s-3.55-2.17-5.55-2.92c-2-0.75-4.08-1.12-6.24-1.12c-5.32,0-10.19,1.86-14.6,5.59
			c-4.42,3.73-8.21,9.19-11.37,16.4c-3.16,7.2-5.62,16.11-7.38,26.7c-1.76,10.6-2.64,22.73-2.64,36.39c0,13.41,0.8,25.17,2.4,35.28
			c1.6,10.1,3.9,18.53,6.9,25.28s6.64,11.82,10.92,15.21c4.28,3.39,9.08,5.09,14.39,5.09c2.72,0,5.25-0.46,7.59-1.37
			c2.34-0.91,4.42-2.05,6.24-3.42c1.82-1.36,3.36-2.79,4.62-4.28c1.26-1.49,2.11-2.71,2.55-3.66c0.44-0.95,0.76-1.8,0.96-2.55
			c0.2-0.75,0.36-1.63,0.48-2.67c0.12-1.03,0.21-2.28,0.27-3.73c0.06-1.45,0.09-3.21,0.09-5.28c0-2.98-0.04-5.36-0.12-7.14
			C293.17,512.76,293.05,511.37,292.89,510.38z"/>
		<path class="st74" d="M371.77,402.56c-3.02-6.71-6.78-11.68-11.28-14.91c-4.5-3.23-9.69-4.84-15.56-4.84
			c-6.16,0-11.57,1.95-16.22,5.84c-4.66,3.89-8.57,9.48-11.73,16.77c-3.16,7.29-5.54,16.13-7.14,26.52
			c-1.6,10.39-2.4,22.09-2.4,35.09c0,14.16,0.75,26.42,2.25,36.77c1.5,10.35,3.75,18.88,6.75,25.59c3,6.7,6.75,11.7,11.25,14.97
			c4.5,3.27,9.77,4.91,15.8,4.91c6.12,0,11.51-1.93,16.17-5.78c4.66-3.85,8.57-9.44,11.73-16.77c3.16-7.33,5.54-16.25,7.14-26.77
			c1.6-10.52,2.4-22.44,2.4-35.77c0-13.91-0.77-25.98-2.31-36.21C377.07,417.74,374.79,409.27,371.77,402.56z M363.38,487.71
			c-0.66,6.83-1.79,12.82-3.39,17.95c-1.6,5.13-3.7,9.19-6.3,12.17c-2.6,2.98-5.84,4.47-9.72,4.47c-3.88,0-7.1-1.3-9.66-3.91
			c-2.56-2.61-4.6-6.39-6.12-11.36c-1.52-4.97-2.6-10.95-3.24-17.95c-0.64-7-0.96-14.88-0.96-23.66c0-7.53,0.33-14.68,0.99-21.43
			c0.66-6.75,1.79-12.65,3.39-17.7c1.6-5.05,3.7-9.09,6.3-12.11c2.6-3.02,5.84-4.53,9.72-4.53c3.84,0,7.04,1.34,9.6,4.04
			c2.56,2.69,4.61,6.5,6.15,11.43c1.54,4.93,2.63,10.85,3.27,17.76c0.64,6.91,0.96,14.6,0.96,23.04
			C364.36,473.61,364.04,480.88,363.38,487.71z"/>
		<path class="st74" d="M451.08,531.5l-6.54-31.67c-0.76-3.81-1.54-7.22-2.34-10.25c-0.8-3.02-1.65-5.71-2.55-8.07
			c-0.9-2.36-1.86-4.37-2.88-6.02c-1.02-1.65-2.11-3.06-3.27-4.22c2.4-1.57,4.54-3.64,6.42-6.21c1.88-2.57,3.46-5.59,4.74-9.07
			c1.28-3.48,2.25-7.43,2.91-11.86s0.99-9.33,0.99-14.72c0-6.37-0.46-12.03-1.38-16.95c-0.92-4.92-2.25-9.19-3.99-12.79
			c-1.74-3.6-3.86-6.52-6.36-8.76c-2.5-2.24-5.31-3.81-8.43-4.72c-1.08-0.25-2.28-0.45-3.6-0.62c-1.32-0.16-3-0.25-5.04-0.25h-20.09
			c-1.32,0-2.43,0.81-3.33,2.42c-0.9,1.61-1.35,4.24-1.35,7.89v145.95c0,0.83,0.12,1.58,0.36,2.24c0.24,0.66,0.66,1.2,1.26,1.62
			c0.6,0.41,1.41,0.74,2.43,0.99c1.02,0.25,2.29,0.37,3.81,0.37c1.56,0,2.84-0.13,3.84-0.37c1-0.25,1.8-0.58,2.4-0.99
			c0.6-0.41,1.03-0.95,1.29-1.62c0.26-0.66,0.39-1.41,0.39-2.24v-61.23h4.92c1.68,0,3.16,0.54,4.44,1.61
			c1.28,1.08,2.41,2.67,3.39,4.78c0.98,2.11,1.87,4.74,2.67,7.89c0.8,3.15,1.62,6.75,2.46,10.8l6.96,35.9
			c0.16,0.99,0.36,1.84,0.6,2.55c0.24,0.7,0.65,1.29,1.23,1.74c0.58,0.46,1.37,0.77,2.37,0.93c1,0.16,2.34,0.25,4.02,0.25
			c2,0,3.58-0.08,4.74-0.25c1.16-0.17,2.04-0.46,2.64-0.87c0.6-0.41,0.98-0.93,1.14-1.55c0.16-0.62,0.24-1.39,0.24-2.3
			c0-0.83-0.1-1.97-0.3-3.42C452.08,536.94,451.68,534.64,451.08,531.5z M431.4,442.19c-0.56,2.82-1.4,5.24-2.52,7.27
			c-1.12,2.03-2.52,3.6-4.2,4.72c-1.68,1.12-3.64,1.68-5.88,1.68h-8.04v-45.58h7.08c1.8,0,3.21,0.12,4.23,0.37
			c1.02,0.25,1.93,0.58,2.73,0.99c2.64,1.49,4.54,4.06,5.7,7.7c1.16,3.64,1.74,8.12,1.74,13.41
			C432.24,436.23,431.96,439.37,431.4,442.19z"/>
		<path class="st74" d="M521.02,405.24c-3.3-6.58-7.36-11.55-12.18-14.91c-4.82-3.35-10.69-5.03-17.6-5.03h-19.91
			c-1.32,0-2.43,0.81-3.33,2.42c-0.9,1.61-1.35,4.24-1.35,7.89v140.11c0,3.65,0.45,6.27,1.35,7.89c0.9,1.62,2.01,2.42,3.33,2.42
			h18.54c6.88,0,12.8-1.55,17.78-4.66c4.98-3.1,9.21-7.97,12.69-14.6c3.48-6.62,6.15-15.17,8.01-25.65
			c1.86-10.47,2.79-23.08,2.79-37.82c0-12.75-0.86-23.97-2.58-33.66C526.83,419.95,524.32,411.82,521.02,405.24z M513.34,488.77
			c-0.98,6.96-2.46,12.77-4.44,17.45s-4.45,8.18-7.41,10.5c-2.96,2.32-6.6,3.48-10.92,3.48h-8.22v-109.3h7.98
			c4.84,0,8.75,1.35,11.73,4.04c2.98,2.69,5.42,6.44,7.32,11.24c1.9,4.8,3.28,10.47,4.14,17.02c0.86,6.54,1.29,13.62,1.29,21.24
			C514.81,473.7,514.32,481.81,513.34,488.77z"/>
		<path class="st74" d="M594.45,481c-0.96-4.76-2.22-8.9-3.78-12.42c-1.56-3.52-3.34-6.54-5.34-9.07c-2-2.53-4.04-4.78-6.12-6.77
			c-2.08-1.99-4.12-3.87-6.12-5.65c-2-1.78-3.79-3.69-5.37-5.71c-1.58-2.03-2.84-4.35-3.78-6.96c-0.94-2.61-1.41-5.69-1.41-9.25
			c0-2.4,0.21-4.68,0.63-6.83c0.42-2.15,1.06-4,1.92-5.53c0.86-1.53,1.93-2.73,3.21-3.6c1.28-0.87,2.78-1.3,4.5-1.3
			c2.2,0,4.22,0.56,6.06,1.68c1.84,1.12,3.46,2.36,4.86,3.73c1.4,1.37,2.58,2.63,3.54,3.79c0.96,1.16,1.66,1.74,2.1,1.74
			c0.44,0,0.79-0.25,1.05-0.75c0.26-0.5,0.46-1.28,0.6-2.36s0.24-2.44,0.3-4.1c0.06-1.65,0.09-3.68,0.09-6.09
			c0-2.15-0.02-3.95-0.06-5.4c-0.04-1.45-0.11-2.65-0.21-3.6c-0.1-0.95-0.22-1.72-0.36-2.3c-0.14-0.58-0.41-1.28-0.81-2.11
			c-0.4-0.82-1.22-1.86-2.46-3.1c-1.24-1.24-2.66-2.36-4.26-3.35c-1.6-0.99-3.32-1.78-5.16-2.36c-1.84-0.58-3.68-0.87-5.52-0.87
			c-3.56,0-6.93,0.95-10.11,2.86c-3.18,1.91-5.94,4.78-8.28,8.63c-2.34,3.85-4.2,8.69-5.58,14.53c-1.38,5.84-2.07,12.61-2.07,20.31
			c0,6.71,0.48,12.46,1.44,17.27c0.96,4.8,2.21,8.96,3.75,12.48c1.54,3.52,3.29,6.54,5.25,9.07c1.96,2.53,3.98,4.78,6.06,6.77
			c2.08,1.99,4.1,3.87,6.06,5.65c1.96,1.78,3.71,3.69,5.25,5.71c1.54,2.03,2.79,4.35,3.75,6.96c0.96,2.61,1.44,5.74,1.44,9.38
			c0,3.15-0.28,6.01-0.84,8.57c-0.56,2.57-1.37,4.72-2.43,6.46c-1.06,1.74-2.35,3.08-3.87,4.04s-3.24,1.43-5.16,1.43
			c-2.92,0-5.49-0.68-7.71-2.05c-2.22-1.37-4.13-2.88-5.73-4.53c-1.6-1.65-2.91-3.17-3.93-4.53c-1.02-1.37-1.81-2.05-2.37-2.05
			c-0.4,0-0.75,0.23-1.05,0.68c-0.3,0.46-0.54,1.22-0.72,2.3c-0.18,1.08-0.31,2.48-0.39,4.23c-0.08,1.74-0.12,3.89-0.12,6.46
			c0,3.81,0.11,6.73,0.33,8.76c0.22,2.03,0.59,3.58,1.11,4.66c0.52,1.08,1.37,2.32,2.55,3.72c1.18,1.41,2.65,2.76,4.41,4.04
			c1.76,1.28,3.79,2.38,6.09,3.29c2.3,0.91,4.79,1.37,7.47,1.37c3.96,0,7.68-1.08,11.16-3.23c3.48-2.15,6.52-5.36,9.12-9.62
			c2.6-4.26,4.66-9.58,6.18-15.96c1.52-6.38,2.28-13.79,2.28-22.23C595.89,491.38,595.41,485.77,594.45,481z"/>
	</g>
</g>
<g id="Laag_3">
	<polygon class="st113" points="627.86,232.22 629.3,230.39 627.86,230.39 	"/>
	<polygon class="st113" points="372.67,265.99 372.67,266.78 392.23,266.78 392.05,265.99 	"/>
	<polygon class="st113" points="368.59,265.99 368.39,266.78 372.67,266.78 372.67,265.99 	"/>
	<path class="st114" d="M182.79,191.17v-2.05h-1.99C181.48,189.76,182.14,190.44,182.79,191.17z"/>
	<path class="st114" d="M525.33,191.8v-2.69h-2.77C523.51,189.95,524.44,190.84,525.33,191.8z"/>
	<polygon class="st113" points="657.21,242.69 657.21,233.81 654.31,237.51 	"/>
	<path class="st114" d="M476.08,189.11h-1.39v1.22C475.15,189.91,475.61,189.51,476.08,189.11z"/>
	<polygon class="st113" points="372.08,250.3 372.67,250.3 372.67,247.93 	"/>
	<path class="st114" d="M163.23,209.75c-0.14,0.77-0.22,1.61-0.22,2.55c0,1.31,0.17,2.45,0.51,3.43v-5.97H163.23z"/>
	<path class="st114" d="M163.53,208.56c-0.12,0.37-0.22,0.77-0.3,1.19h0.3V208.56z"/>
	<rect x="198.61" y="209.75" class="st115" width="4.94" height="9.53"/>
	<path class="st115" d="M200.41,247.46h-1.8v19.32h8.26c-0.52-4.51-1.6-8.8-3.25-12.85C202.74,251.72,201.67,249.57,200.41,247.46z"
		/>
	<path class="st115" d="M198.61,219.28v-9.53H179.1c1.63,2.38,2.95,5.55,3.96,9.53H198.61z"/>
	<path class="st115" d="M176.86,226.81c-6.72-4.53-10.7-7.47-11.93-8.8c-0.62-0.61-1.08-1.38-1.4-2.29v14.66h18.48
		C180.42,229.26,178.7,228.07,176.86,226.81z"/>
	<path class="st115" d="M194.92,240.32c-2.41-2.26-6.72-5.57-12.91-9.94h-18.48v17.08h35.08v-2.8
		C197.36,242.87,196.13,241.42,194.92,240.32z"/>
	<path class="st115" d="M199.63,246.17c-0.34-0.53-0.68-1.03-1.02-1.51v2.8h1.8C200.16,247.03,199.9,246.6,199.63,246.17z"/>
	<path class="st115" d="M180.8,189.11c-4.9-4.64-10.66-7.09-17.27-7.35v7.35H180.8z"/>
	<path class="st115" d="M163.53,208.56c0.89-2.77,2.96-4.16,6.21-4.16c3.81,0,6.93,1.79,9.36,5.34h19.52v-20.64h-15.82v2.05
		c-0.65-0.73-1.31-1.41-1.99-2.05h-17.27V208.56z"/>
	<path class="st115" d="M149.81,247.46h13.72v-17.08H138.6h24.93v-14.66c-0.34-0.97-0.51-2.11-0.51-3.43c0-0.93,0.07-1.78,0.22-2.55
		h-25.36h25.36c0.08-0.42,0.18-0.82,0.3-1.19v-19.45h-17.35h17.35v-7.35c-0.39-0.02-0.78-0.03-1.17-0.03
		c-8.04,0-14.81,3.3-20.3,9.89c-5.54,6.59-8.31,15.75-8.31,27.48c0,6.53,1.16,12.49,3.49,17.87c2.33,5.44,5.14,9.71,8.44,12.79
		c3.52,3.39,9.01,7.41,16.48,12.06c0.48,0.29,0.92,0.57,1.37,0.85v-15.21H149.81z"/>
	<rect x="182.79" y="183.37" class="st115" width="15.82" height="5.75"/>
	<rect x="198.61" y="183.37" class="st115" width="4.94" height="5.75"/>
	<rect x="198.61" y="189.11" class="st115" width="4.94" height="20.64"/>
	<path class="st115" d="M198.61,266.78v-19.32h-35.08v15.21c2.43,1.52,4.48,2.89,6.14,4.11H198.61z"/>
	<path class="st74" d="M198.61,300.08c0.02-0.03,0.04-0.05,0.06-0.08c2.33-2.98,4.18-6.24,5.55-9.77h-5.62V300.08z"/>
	<path class="st74" d="M163.53,290.24v14.45V290.24h-25.66H163.53v-6.12c-3.88-2.3-6.69-7.3-8.42-15.04h-20.63v40.45h20.63v-8.25
		c6.55,6.59,13.86,9.89,21.95,9.89c8.67,0,15.85-3.69,21.56-11.08v-9.85H163.53z"/>
	<path class="st74" d="M198.61,290.24v-23.45h-28.94c1.87,1.37,3.26,2.56,4.16,3.56c1.71,1.88,2.57,4.23,2.57,7.07
		c0,5.44-2.46,8.16-7.38,8.16c-2.02,0-3.85-0.5-5.48-1.47v6.12H198.61z"/>
	<path class="st74" d="M206.87,266.78h-8.26v23.45h5.62c2-5.12,3.01-10.81,3.01-17.08C207.25,270.98,207.11,268.86,206.87,266.78z"
		/>
	<polygon class="st115" points="248.56,236.52 248.56,230.39 247.45,230.39 247.45,234.75 247.45,230.39 231.36,230.39 
		231.36,236.52 	"/>
	<polygon class="st74" points="282.54,266.78 259.11,266.78 259.11,279.32 251.2,279.32 251.2,290.24 282.54,290.24 	"/>
	<polygon class="st74" points="282.54,307.23 282.54,290.24 251.2,290.24 251.2,309.53 302.68,309.53 302.68,290.24 282.54,290.24 	
		"/>
	<rect x="259.11" y="247.46" class="st74" width="23.43" height="19.32"/>
	<rect x="282.54" y="247.46" class="st74" width="12.04" height="19.32"/>
	<rect x="259.11" y="230.39" class="st115" width="23.43" height="17.08"/>
	<polygon class="st74" points="294.57,279.32 294.57,266.78 282.54,266.78 282.54,290.24 302.68,290.24 302.68,279.32 	"/>
	<rect x="282.54" y="230.39" class="st115" width="12.04" height="17.08"/>
	<rect x="282.54" y="189.11" class="st115" width="31.64" height="20.64"/>
	<rect x="231.36" y="209.75" class="st115" width="16.09" height="20.64"/>
	<rect x="314.18" y="209.75" class="st115" width="8.08" height="20.64"/>
	<polygon class="st115" points="282.54,230.39 294.57,230.39 294.57,213.57 305.05,213.57 305.05,230.39 314.18,230.39 
		314.18,209.75 282.54,209.75 	"/>
	<polygon class="st115" points="248.56,230.39 248.56,213.57 259.11,213.57 259.11,230.39 282.54,230.39 282.54,209.75 
		247.45,209.75 247.45,230.39 	"/>
	<rect x="314.18" y="189.11" class="st115" width="8.08" height="20.64"/>
	<rect x="247.45" y="189.11" class="st115" width="35.08" height="20.64"/>
	<rect x="314.18" y="183.37" class="st115" width="8.08" height="5.75"/>
	<rect x="231.36" y="183.37" class="st115" width="16.09" height="5.75"/>
	<polygon class="st115" points="322.26,236.52 322.26,230.39 314.18,230.39 314.18,233.37 314.18,230.39 305.05,230.39 
		305.05,236.52 	"/>
	<rect x="282.54" y="183.37" class="st115" width="31.64" height="5.75"/>
	<rect x="247.45" y="183.37" class="st115" width="35.08" height="5.75"/>
	<rect x="231.36" y="189.11" class="st115" width="16.09" height="20.64"/>
	<polygon class="st74" points="387.86,247.46 388.49,250.3 372.67,250.3 372.67,265.99 392.05,265.99 392.23,266.78 407.75,266.78 
		407.75,247.46 	"/>
	<polygon class="st74" points="407.75,266.78 392.23,266.78 395.55,281.86 387.5,281.86 387.5,290.24 407.75,290.24 	"/>
	<polygon class="st74" points="407.75,307.23 407.75,290.24 387.5,290.24 387.5,309.53 435.36,309.53 435.36,290.24 407.75,290.24 	
		"/>
	<polygon class="st74" points="377,230.39 380.71,215.38 384.06,230.39 407.75,230.39 407.75,209.75 372.67,209.75 372.67,230.39 	
		"/>
	<polygon class="st74" points="415.59,230.39 411.1,213.57 418.49,213.57 418.49,209.75 407.75,209.75 407.75,230.39 	"/>
	<rect x="335.76" y="290.24" class="st74" width="36.32" height="19.29"/>
	<rect x="372.67" y="189.11" class="st115" width="35.08" height="20.64"/>
	<polygon class="st74" points="377,230.39 372.67,230.39 372.67,247.46 372.78,247.46 	"/>
	<polygon class="st74" points="359.95,213.57 355.55,230.39 372.67,230.39 372.67,209.75 352.57,209.75 352.57,213.57 	"/>
	<polygon class="st74" points="372.67,247.46 372.67,247.93 372.78,247.46 	"/>
	<polygon class="st74" points="428.64,279.32 425.29,266.78 407.75,266.78 407.75,290.24 435.36,290.24 435.36,279.32 	"/>
	<polygon class="st74" points="364.56,281.86 368.39,266.78 346.03,266.78 342.75,279.32 335.76,279.32 335.76,290.24 
		372.08,290.24 372.08,281.86 	"/>
	<rect x="352.57" y="183.37" class="st115" width="20.1" height="5.75"/>
	<polygon class="st74" points="384.06,230.39 387.86,247.46 407.75,247.46 407.75,230.39 	"/>
	<polygon class="st74" points="372.67,265.99 372.67,250.3 372.08,250.3 372.67,247.93 372.67,247.46 351.08,247.46 346.03,266.78 
		368.39,266.78 368.59,265.99 	"/>
	<rect x="407.75" y="183.37" class="st115" width="10.74" height="5.75"/>
	<rect x="372.67" y="183.37" class="st115" width="35.08" height="5.75"/>
	<polygon class="st74" points="407.75,247.46 407.75,266.78 425.29,266.78 420.14,247.46 	"/>
	<rect x="352.57" y="189.11" class="st115" width="20.1" height="20.64"/>
	<polygon class="st74" points="407.75,230.39 407.75,247.46 420.14,247.46 415.59,230.39 	"/>
	<rect x="407.75" y="189.11" class="st115" width="10.74" height="20.64"/>
	<polygon class="st74" points="355.55,230.39 351.08,247.46 372.67,247.46 372.67,230.39 	"/>
	<path class="st115" d="M494.94,230.39h-20.25v17.08h19.27c0-0.41-0.01-0.82-0.01-1.24C493.95,240.16,494.28,234.89,494.94,230.39z"
		/>
	<path class="st115" d="M455.39,230.39c-0.79,5.11-1.19,10.47-1.19,16.1c0,0.33,0.01,0.65,0.01,0.97h20.47v-17.08H455.39z"/>
	<path class="st115" d="M508.85,210.94c3.6,0,6.81,1.63,9.62,4.9c2.81,3.33,4.81,7.86,6,13.6h10.75v-19.69h-29.35v1.59
		C506.81,211.08,507.8,210.94,508.85,210.94z"/>
	<rect x="535.22" y="209.75" class="st115" width="12.12" height="19.69"/>
	<path class="st115" d="M505.87,182.31v6.8h16.69c-6.34-5.52-14.18-8.29-23.53-8.29c-8.72,0-16.37,2.78-22.95,8.29h29.79V182.31z"/>
	<path class="st115" d="M474.69,209.75h31.18v-20.64h-29.79c-0.47,0.39-0.93,0.8-1.39,1.22V209.75z"/>
	<rect x="525.33" y="183.37" class="st115" width="9.9" height="5.75"/>
	<path class="st115" d="M505.87,209.75h29.35v-20.64h-9.9v2.69c-0.89-0.96-1.81-1.85-2.77-2.69h-16.69V209.75z"/>
	<path class="st74" d="M474.69,266.78h-18.47c1.83,8.63,4.89,16.45,9.2,23.45h9.27V266.78z"/>
	<path class="st115" d="M474.69,190.33c-2.89,2.66-5.57,5.86-8.03,9.63c-2.02,3.1-3.79,6.36-5.31,9.79h13.34V190.33z"/>
	<path class="st74" d="M535.22,266.78v23.45h6.82c3.81-6.72,6.45-14.54,7.92-23.45H535.22z"/>
	<path class="st74" d="M474.69,290.24v11.01V290.24h-9.27c0.49,0.79,0.99,1.56,1.5,2.33c8.43,12.62,21.41,18.94,38.95,18.95v-21.29
		H474.69z"/>
	<path class="st74" d="M535.22,297.64v-7.4h-29.35v21.29c0.03,0,0.05,0,0.07,0c12.88,0,22.98-4.32,30.32-12.97
		c2.16-2.55,4.08-5.33,5.77-8.32h-6.82V297.64z"/>
	<path class="st74" d="M535.22,258.21v8.57h14.74c0.07-0.44,0.15-0.88,0.22-1.33L535.22,258.21z"/>
	<rect x="535.22" y="183.37" class="st115" width="12.12" height="5.75"/>
	<path class="st74" d="M454.22,247.46c0.06,6.84,0.73,13.28,2,19.32h18.47v-19.32H454.22z"/>
	<path class="st74" d="M493.96,247.46h-19.27v19.32h21.19C494.66,261.67,494.02,255.23,493.96,247.46z"/>
	<path class="st115" d="M474.69,230.39v-20.64h-13.34c-2.82,6.33-4.81,13.2-5.96,20.64H474.69z"/>
	<path class="st74" d="M495.88,266.78h-21.19v23.45h31.18v-9.16C501.12,279.57,497.79,274.81,495.88,266.78z"/>
	<path class="st115" d="M494.94,230.39c1.63-11.12,5.27-17.47,10.93-19.05v-1.59h-31.18v20.64H494.94z"/>
	<rect x="535.22" y="189.11" class="st115" width="12.12" height="20.64"/>
	<path class="st74" d="M526.38,253.93c-0.63,4.96-1.5,9.23-2.61,12.85h11.45v-8.57L526.38,253.93z"/>
	<path class="st74" d="M509.38,281.59c-1.24,0-2.41-0.18-3.5-0.52v9.16h29.35v-23.45h-11.45
		C520.75,276.64,515.96,281.59,509.38,281.59z"/>
	<rect x="657.21" y="189.11" class="st115" width="22.94" height="20.64"/>
	<rect x="575.34" y="183.37" class="st115" width="21.33" height="5.75"/>
	<rect x="575.34" y="189.11" class="st115" width="21.33" height="20.64"/>
	<polygon class="st74" points="596.68,266.78 582.53,266.78 582.53,279.32 575.54,279.32 575.54,290.24 596.68,290.24 	"/>
	<rect x="635" y="189.11" class="st115" width="22.21" height="20.64"/>
	<rect x="575.54" y="290.24" class="st74" width="21.13" height="19.29"/>
	<rect x="596.68" y="183.37" class="st115" width="28.57" height="5.75"/>
	<rect x="596.68" y="189.11" class="st115" width="28.57" height="20.64"/>
	<polygon class="st74" points="617.99,279.32 617.99,266.78 596.68,266.78 596.68,290.24 625.24,290.24 625.24,279.32 	"/>
	<rect x="657.21" y="290.24" class="st74" width="25.05" height="19.29"/>
	<polygon class="st74" points="677.71,279.32 670.7,266.78 657.21,266.78 657.21,290.24 682.26,290.24 682.26,279.32 	"/>
	<rect x="634.8" y="290.24" class="st74" width="22.41" height="19.29"/>
	<rect x="635" y="183.37" class="st115" width="22.21" height="5.75"/>
	<rect x="596.68" y="290.24" class="st74" width="28.57" height="19.29"/>
	<polygon class="st74" points="657.21,266.78 632.2,266.78 639.22,279.32 634.8,279.32 634.8,290.24 657.21,290.24 	"/>
	<polygon class="st115" points="657.21,230.39 659.88,230.39 673.04,213.57 680.15,213.57 680.15,209.75 657.21,209.75 	"/>
	<polygon class="st115" points="582.53,213.57 582.53,230.39 596.68,230.39 596.68,209.75 575.34,209.75 575.34,213.57 	"/>
	<rect x="582.53" y="247.46" class="st74" width="14.15" height="19.32"/>
	<polygon class="st115" points="617.99,230.39 617.99,213.57 625.24,213.57 625.24,209.75 596.68,209.75 596.68,230.39 	"/>
	<polygon class="st74" points="621.38,247.46 627.86,247.46 627.86,232.22 619.11,243.41 	"/>
	<rect x="596.68" y="230.39" class="st74" width="21.32" height="17.08"/>
	<rect x="657.21" y="183.37" class="st115" width="22.94" height="5.75"/>
	<rect x="596.68" y="247.46" class="st74" width="21.32" height="19.32"/>
	<polygon class="st115" points="642.45,213.57 629.3,230.39 657.21,230.39 657.21,209.75 635,209.75 635,213.57 	"/>
	<polygon class="st74" points="629.3,230.39 627.86,232.22 627.86,247.46 657.21,247.46 657.21,242.69 654.31,237.51 657.21,233.81 
		657.21,230.39 	"/>
	<polygon class="st74" points="657.21,233.81 659.88,230.39 657.21,230.39 	"/>
	<polygon class="st74" points="659.88,247.46 657.21,242.69 657.21,247.46 	"/>
	<polygon class="st74" points="627.86,247.46 627.86,258.59 627.86,247.46 621.38,247.46 632.2,266.78 657.21,266.78 657.21,247.46 
			"/>
	<rect x="582.53" y="230.39" class="st74" width="14.15" height="17.08"/>
	<polygon class="st74" points="657.21,266.78 670.7,266.78 659.88,247.46 657.21,247.46 	"/>
	<path class="st74" d="M190.92,371.98c2.67-1.65,4.82-4.23,6.46-7.74c1.64-3.55,2.46-7.5,2.46-11.85c0-5.8-1.35-10.84-4.04-15.12
		c-2.67-4.19-6.14-6.91-10.42-8.16c-1.52-0.44-3.19-0.8-5.01-1.06c-1.82-0.26-4-0.46-6.55-0.6c-2.55-0.14-5.32-0.21-8.31-0.21H132.3
		v20.13h4.97v43.84h-4.97v20.13h33.22v-20.13h-4.61V377h7.51l13.32,34.34h22.02v-20.13h-4.39L190.92,371.98z M173.91,358.86
		c-0.91,1.33-2.02,2.14-3.34,2.42c-1.23,0.28-3.57,0.42-7.03,0.42h-2.64v-16.02h2.15c3.57,0,6.04,0.14,7.38,0.42
		c1.41,0.28,2.56,1.09,3.47,2.42c0.91,1.29,1.36,3.02,1.36,5.2S174.82,357.61,173.91,358.86z"/>
	<polygon class="st74" points="218.2,347.37 223.03,347.37 223.03,391.21 218.29,391.21 218.29,411.35 276.6,411.35 276.6,384.44 
		260.56,384.44 260.56,391.21 246.68,391.21 246.68,377.43 258.76,377.43 258.76,360.31 246.68,360.31 246.68,347.37 260.56,347.37 
		260.56,354.15 276.6,354.15 276.6,327.24 218.2,327.24 	"/>
	<path class="st74" d="M331.88,392.72c-6.86,0-10.28-7.86-10.28-23.58c0-15.68,3.31-23.52,9.93-23.52c2.4,0,4.54,1.09,6.42,3.27
		c1.87,2.22,3.21,5.24,4,9.07h15.25v-30.72h-14.68v5.62c-4.51-4.88-10.36-7.32-17.53-7.32c-8.85,0-16.04,4.25-21.58,12.76
		c-5.54,8.51-8.31,18.85-8.31,31.02c0,12.09,2.83,22.33,8.48,30.72c5.62,8.42,14.3,12.64,26.02,12.64c8.58,0,15.32-2.88,20.21-8.65
		c4.83-5.72,7.92-13.08,9.27-22.07l-15.86-7.68C341.66,386.58,337.88,392.72,331.88,392.72z"/>
	<path class="st74" d="M436.24,338.79c-6.01-8.83-14.49-13.24-25.44-13.24c-2.52,0-4.92,0.25-7.21,0.76s-4.4,1.22-6.35,2.15
		c-1.95,0.93-3.85,2.18-5.69,3.75c-5.19,4.47-9.01,9.98-11.47,16.51c-2.49,6.57-3.74,13.36-3.74,20.38
		c0,12.82,3.19,23.28,9.58,31.38c6.36,8.14,14.65,12.21,24.87,12.21c10.58,0,18.97-4.33,25.18-13c6.21-8.67,9.32-18.87,9.32-30.6
		c0-5.68-0.76-11.07-2.29-16.14S439.23,343.14,436.24,338.79z M416.77,388.19c-1.32,3.18-3.31,4.78-5.98,4.78
		c-2.7,0-4.67-1.65-5.93-4.96c-1.32-3.26-1.98-9.57-1.98-18.93c0-9.51,0.66-15.86,1.98-19.05c1.32-3.18,3.3-4.78,5.93-4.78
		c2.75,0,4.76,1.65,6.02,4.96c1.29,3.35,1.93,9.63,1.93,18.87C418.75,378.59,418.09,384.96,416.77,388.19z"/>
	<path class="st74" d="M521.31,371.98c2.67-1.65,4.82-4.23,6.46-7.74c1.64-3.55,2.46-7.5,2.46-11.85c0-5.8-1.35-10.84-4.04-15.12
		c-2.67-4.19-6.14-6.91-10.42-8.16c-1.52-0.44-3.19-0.8-5.01-1.06c-1.82-0.26-4-0.46-6.55-0.6c-2.55-0.14-5.32-0.21-8.31-0.21
		h-33.22v20.13h4.97v43.84h-4.97v20.13h33.22v-20.13h-4.61V377h7.51l13.32,34.34h22.02v-20.13h-4.39L521.31,371.98z M504.3,358.86
		c-0.91,1.33-2.02,2.14-3.34,2.42c-1.23,0.28-3.57,0.42-7.03,0.42h-2.64v-16.02h2.15c3.57,0,6.04,0.14,7.38,0.42
		c1.41,0.28,2.56,1.09,3.47,2.42c0.91,1.29,1.36,3.02,1.36,5.2S505.21,357.61,504.3,358.86z"/>
	<path class="st74" d="M615.61,350.28c-2.14-6.05-5.07-10.84-8.79-14.39c-3.75-3.51-7.75-5.83-12-6.95
		c-4.22-1.13-9.67-1.69-16.35-1.69h-29.27v20.13H554v43.84h-4.79v20.13h28.43c8.29,0,14.41-0.48,18.37-1.45
		c3.98-0.97,7.65-3.04,10.99-6.23c3.43-3.18,6.25-7.76,8.48-13.73c2.26-6.01,3.38-12.66,3.38-19.95c0-3.63-0.28-7.09-0.83-10.4
		C617.47,356.28,616.66,353.18,615.61,350.28z M590.73,385.1c-1.67,4.07-5.29,6.11-10.85,6.11h-2.24v-43.84h0.88
		c4.69,0,7.94,0.99,9.76,2.96c1.85,1.98,3.13,4.78,3.87,8.4c0.7,3.63,1.05,7.3,1.05,11C593.2,375.91,592.38,381.03,590.73,385.1z"/>
	<path class="st74" d="M679.87,369.11c-1.07-1.67-2.12-2.97-3.14-3.9c-2.02-1.89-6.04-4.9-12.04-9.01
		c-4.48-3.02-7.13-4.98-7.95-5.87c-0.85-0.85-1.27-2.12-1.27-3.81c0-3.51,1.49-5.26,4.48-5.26c4.25,0,7.21,3.31,8.88,9.92h13.67
		v-23.94h-13.84v5.2c-3.72-4.19-8.26-6.29-13.62-6.29s-9.87,2.2-13.54,6.59c-3.69,4.39-5.54,10.5-5.54,18.32
		c0,4.35,0.78,8.32,2.33,11.91c1.55,3.63,3.43,6.47,5.62,8.53c2.34,2.26,6.01,4.94,10.99,8.04c3.96,2.42,6.55,4.31,7.78,5.68
		c1.14,1.25,1.71,2.82,1.71,4.72c0,3.63-1.64,5.44-4.92,5.44c-4.54,0-7.63-3.67-9.27-11h-13.75v26.97h13.75v-5.5
		c4.37,4.39,9.24,6.59,14.63,6.59c5.8,0,10.61-2.48,14.41-7.44c3.81-4.88,5.71-10.84,5.71-17.9c0-4.59-0.81-8.87-2.42-12.82
		C681.82,372.51,680.94,370.78,679.87,369.11z"/>
	<line class="st116" x1="351.08" y1="309.53" x2="351.08" y2="247.46"/>
</g>
</svg>
